# Exported from Wings 3D 0.99.03
mtllib 1D_1D2.mtl
o cube2
#11 vertices, 18 faces
v 0.50000000 -0.50000000 -0.50000000
v 0.50000000 -0.40000000 -0.50000000
v -0.50000000 0.60000000 -0.50000000
v -0.50000000 -0.50000000 -0.50000000
v 0.50000000 -0.50000000 0.50000000
v 0.50000000 0.60000000 0.50000000
v -0.50000000 -0.40000000 0.50000000
v -0.50000000 -0.50000000 0.50000000
v 0.50000000 0.10000000 0.0000000e+0
v 0.0000000e+0 0.10000000 0.0000000e+0
v 0.0000000e+0 0.10000000 -0.50000000
vt 0.0000000e+0 0.0000000e+0
vt 0.0000000e+0 0.10000000
vt 0.0000000e+0 0.70000000
vt 0.0000000e+0 1.00000000
vt 0.0000000e+0 1.10000000
vt 0.0000000e+0 1.40000000
vt 0.50000000 0.0000000e+0
vt 0.50000000 0.60000000
vt 0.50000000 0.70000000
vt 0.50000000 1.40000000
vt 1.00000000 0.0000000e+0
vt 1.00000000 0.10000000
vt 1.00000000 1.00000000
vt 1.00000000 1.10000000
vn 0.57735027 -0.57735027 -0.57735027
vn 0.66329831 0.34651218 -0.66329831
vn -0.19875685 0.95968298 -0.19875685
vn -0.48507125 -0.48507125 -0.72760688
vn 0.72760688 -0.48507125 0.48507125
vn 0.19875685 0.95968298 0.19875685
vn -0.66329831 0.34651218 0.66329831
vn -0.57735027 -0.57735027 0.57735027
vn 0.70710678 0.50000000 -0.50000000
vn 0.16222142 0.97332853 -0.16222142
vn 0.50000000 0.50000000 -0.70710678
g cube2_cube2_auv6
usemtl cube2_auv6
f 1/1/1 4/11/4 2/2/2
f 1/13/1 5/4/5 4/11/4
f 2/2/2 4/11/4 11/8/11
f 2/12/2 5/1/5 1/11/1
f 2/1/2 10/9/10 9/3/9
f 2/7/2 11/9/11 10/3/10
f 3/14/3 11/8/11 4/11/4
f 4/11/4 5/4/5 8/1/8
f 4/1/4 7/12/7 3/5/3
f 5/11/5 7/2/7 8/1/8
f 5/1/5 9/8/9 6/5/6
f 6/14/6 7/2/7 5/11/5
f 6/10/6 10/3/10 7/7/7
f 7/1/7 10/9/10 3/6/3
f 8/11/8 7/12/7 4/1/4
f 9/8/9 5/1/5 2/12/2
f 9/3/9 10/9/10 6/6/6
f 10/3/10 11/9/11 3/10/3
