# Exported from Wings 3D 0.99.03
mtllib 1S_1DL4.mtl
o cube1
#10 vertices, 16 faces
v -0.50000000 -0.50000000 0.50000000
v -0.50000000 0.60000000 0.50000000
v 0.50000000 -0.40000000 0.50000000
v 0.50000000 -0.50000000 0.50000000
v -0.50000000 -0.50000000 -0.50000000
v -0.50000000 0.60000000 -0.50000000
v 0.50000000 0.60000000 -0.50000000
v 0.50000000 -0.50000000 -0.50000000
v -0.50000000 0.10000000 0.0000000e+0
v 0.0000000e+0 0.10000000 0.0000000e+0
vt 0.0000000e+0 0.0000000e+0
vt 0.0000000e+0 0.10000000
vt 0.0000000e+0 0.70710678
vt 0.0000000e+0 1.00000000
vt 0.0000000e+0 1.10000000
vt 0.0000000e+0 1.41421356
vt 0.38890873 0.0000000e+0
vt 0.38890873 0.55000000
vt 0.50000000 0.60000000
vt 0.50000000 0.70710678
vt 1.00000000 0.0000000e+0
vt 1.00000000 0.10000000
vt 1.00000000 1.00000000
vt 1.00000000 1.10000000
vt 1.00000000 1.41421356
vn -0.66666667 -0.33333333 0.66666667
vn -0.19875685 0.95968298 0.19875685
vn 0.66329831 0.34651218 0.66329831
vn 0.40824829 -0.81649658 0.40824829
vn -0.57735027 -0.57735027 -0.57735027
vn -0.56151667 0.79410449 0.23258782
vn 0.54691816 0.77345908 -0.32037724
vn 0.81649658 -0.40824829 -0.40824829
vn -0.90453403 0.42640143 0.0000000e+0
vn 0.18257419 0.91287093 0.36514837
g cube1_cube1_auv2
usemtl cube1_auv2
f 1/1/1 3/12/3 2/5/2
f 1/11/1 5/13/5 4/1/4
f 1/11/1 9/9/9 5/1/5
f 2/14/2 9/9/9 1/11/1
f 2/8/2 10/1/10 9/7/9
f 3/2/3 8/11/8 7/14/7
f 3/1/3 10/8/10 2/5/2
f 4/11/4 3/12/3 1/1/1
f 4/1/4 5/13/5 8/4/8
f 4/1/4 8/11/8 3/2/3
f 5/11/5 7/5/7 8/1/8
f 5/1/5 9/9/9 6/5/6
f 6/14/6 7/5/7 5/11/5
f 6/6/6 10/10/10 7/15/7
f 7/15/7 10/10/10 3/11/3
f 9/3/9 10/10/10 6/6/6
