# Exported from Wings 3D 0.99.03
mtllib 2D4.mtl
o cube2
#10 vertices, 16 faces
v -0.50000000 -0.50000000 -0.50000000
v -0.50000000 0.60000000 -0.50000000
v -0.50000000 -0.40000000 0.50000000
v -0.50000000 -0.50000000 0.50000000
v 0.50000000 -0.50000000 -0.50000000
v 0.50000000 0.60000000 -0.50000000
v 0.50000000 -0.40000000 0.50000000
v 0.50000000 -0.50000000 0.50000000
v -5.5511151e-17 1.0000000e-1 -0.50000000
v 5.5511151e-17 1.0000000e-1 1.1102230e-16
vt 0.0000000e+0 0.0000000e+0
vt 0.0000000e+0 0.10000000
vt 0.0000000e+0 0.70710678
vt 0.0000000e+0 1.00000000
vt 0.0000000e+0 1.10000000
vt 0.0000000e+0 1.41421356
vt 0.50000000 0.0000000e+0
vt 0.50000000 0.60000000
vt 0.50000000 0.70710678
vt 1.00000000 0.0000000e+0
vt 1.00000000 0.10000000
vt 1.00000000 1.00000000
vt 1.00000000 1.10000000
vt 1.00000000 1.41421356
vn -0.66666667 -0.33333333 -0.66666667
vn -0.19875685 0.95968298 -0.19875685
vn -0.58152246 0.41119848 0.70195971
vn -0.33333333 -0.66666667 0.66666667
vn 0.57735027 -0.57735027 -0.57735027
vn 0.19875685 0.95968298 -0.19875685
vn 0.47596315 0.33655677 0.81251992
vn 0.57735027 -0.57735027 0.57735027
vn -4.0169380e-16 0.42640143 -0.90453403
vn 8.0780591e-17 0.85749293 0.51449576
g cube2_cube2_auv4
usemtl cube2_auv4
f 1/1/1 3/11/3 2/5/2
f 1/1/1 4/10/4 3/11/3
f 1/10/1 5/12/5 4/1/4
f 1/10/1 9/8/9 5/1/5
f 2/13/2 9/8/9 1/10/1
f 2/9/2 10/1/10 9/7/9
f 3/1/3 10/9/10 2/6/2
f 4/1/4 7/11/7 3/2/3
f 4/1/4 8/10/8 7/11/7
f 5/12/5 8/4/8 4/1/4
f 5/1/5 9/8/9 6/5/6
f 6/13/6 7/2/7 5/10/5
f 6/14/6 10/9/10 7/10/7
f 7/2/7 8/1/8 5/10/5
f 7/10/7 10/9/10 3/1/3
f 9/1/9 10/7/10 6/3/6
