# Exported from Wings 3D 0.99.03
mtllib Boulder.mtl
o cube1
#68 vertices, 128 faces
v -0.50000000 -0.50000000 0.50000000
v -0.50000000 -0.40000000 0.50000000
v 0.50000000 -0.40000000 0.50000000
v 0.50000000 -0.50000000 0.50000000
v -0.50000000 -0.50000000 -0.50000000
v -0.50000000 -0.40000000 -0.50000000
v 0.50000000 -0.40000000 -0.50000000
v 0.50000000 -0.50000000 -0.50000000
v 0.14413525 -0.40909909 0.12458331
v 0.20110813 -0.39482973 7.7920831e-2
v 0.21414524 -0.41614883 5.3001859e-2
v 9.2973454e-2 -0.42146577 0.11752580
v 0.16298345 -0.42851552 4.5944350e-2
v 5.7855113e-2 -0.42945644 5.8159805e-2
v -2.2314189e-2 -0.41137231 0.15594454
v -5.7432530e-2 -0.41936298 9.6578546e-2
v -0.15982195 -0.40025383 0.15351682
v -1.2125921e-2 -0.37473514 0.18240472
v -0.14963368 -0.36361666 0.17997701
v -2.8905377e-2 -0.31677890 0.17066707
v 0.15289177 -0.35871529 0.11116738
v 9.5918885e-2 -0.37298465 0.15782986
v 7.9139428e-2 -0.31502842 0.14609220
v -0.28218647 -0.34612478 8.7928707e-2
v -0.30967411 -0.36886383 -2.2114995e-2
v -0.23505778 -0.25618107 2.5403235e-2
v 0.25045618 -0.39847249 -2.3246054e-2
v 0.23741907 -0.37715339 1.6729183e-3
v 0.24580586 -0.35960533 -8.8910851e-2
v 1.5427392e-2 -0.21918442 9.0272642e-2
v -5.8172224e-2 -0.17607847 3.7057112e-2
v 6.4877144e-2 -0.19141429 1.9825804e-2
v 4.8964765e-2 -0.42852204 -1.1823999e-2
v 0.15409310 -0.42758111 -2.4039454e-2
v 6.8080478e-2 -0.41884944 -7.8428854e-2
v 0.21667479 -0.32561110 -4.2176635e-3
v 0.19237220 -0.25415410 -3.9739683e-2
v 0.22506159 -0.30806304 -9.4801433e-2
v -0.25148606 -0.40670970 9.1032704e-2
v -0.14909664 -0.42581885 3.4094426e-2
v -0.27897370 -0.42944875 -1.9010998e-2
v 0.20991422 -0.40546551 -6.7306261e-2
v 0.20526391 -0.36659834 -0.13297106
v 0.12390160 -0.39673384 -0.12169566
v -7.9115974e-2 -0.26063324 0.13458196
v -0.19984428 -0.30747100 0.14389191
v -0.15271559 -0.21752729 8.1366435e-2
v -0.21147085 -0.43469128 -8.7646072e-2
v -8.1593787e-2 -0.43106138 -3.4540648e-2
v -6.2478073e-2 -0.42138879 -0.10114550
v 0.17104193 -0.31108954 6.5509330e-2
v 9.7289592e-2 -0.26740266 0.10043415
v 0.14673934 -0.23963253 2.9987310e-2
v -0.21715197 -0.39094411 -0.13663016
v -6.8159194e-2 -0.37764161 -0.15012959
v -9.7500924e-2 -0.30856930 -0.17169610
v -0.18385589 -0.22305010 -5.5213231e-2
v -0.25847221 -0.33573285 -0.10273146
v -0.13882117 -0.25335804 -0.13779740
v 4.9007755e-2 -0.18430429 -5.5618472e-2
v -7.4041613e-2 -0.16896847 -3.8387163e-2
v -2.9006897e-2 -0.19927641 -0.12097133
v 0.16821867 -0.27668255 -0.15084303
v 0.13552929 -0.22277361 -9.5781282e-2
v 5.7514634e-2 -0.23774573 -0.16113414
v 5.9815852e-2 -0.35350940 -0.16389339
v 0.14117816 -0.32337391 -0.17516878
v 3.0474122e-2 -0.28443708 -0.18545989
vt 7.6305600e-3 9.8769600e-3
vt 7.6305600e-3 0.11476152
vt 7.6305600e-3 0.11476152
vt 7.6305600e-3 0.13806920
vt 7.6305600e-3 0.13806920
vt 7.6305600e-3 0.24295376
vt 2.8893233e-2 0.58833944
vt 4.7221990e-2 0.42217066
vt 0.13384169 0.77153642
vt 0.17805773 0.31008355
vt 0.18304305 0.67711051
vt 0.19552426 0.51506610
vt 0.24070736 9.8769600e-3
vt 0.24070736 0.11476152
vt 0.24070736 0.11476152
vt 0.24070736 0.13806920
vt 0.24070736 0.13806920
vt 0.24070736 0.24295376
vt 0.29157227 0.88896406
vt 0.31416075 0.35401659
vt 0.32416229 0.78077600
vt 0.32596171 0.55231497
vt 0.35767000 0.97606286
vt 0.38418993 0.70926066
vt 0.39982566 0.31162603
vt 0.41971963 0.53633461
vt 0.44278899 0.67882182
vt 0.45545208 0.85227352
vt 0.46659919 0.77674709
vt 0.48949462 0.66813361
vt 0.50356634 0.50299107
vt 0.51468777 0.69099188
vt 0.51515366 0.71826295
vt 0.52601197 0.76397055
vt 0.52763241 0.62813803
vt 0.53098023 0.75929649
vt 0.53641980 0.87602364
vt 0.54566383 0.80355101
vt 0.54878368 0.67141075
vt 0.55264044 0.91484076
vt 0.56488890 0.74500636
vt 0.57261656 0.58672797
vt 0.57326236 0.72481515
vt 0.57382836 0.82064545
vt 0.57642810 0.69145457
vt 0.57918210 0.76818365
vt 0.59174039 0.48726069
vt 0.59300218 0.88220700
vt 0.60476826 0.79888797
vt 0.60482777 0.61451489
vt 0.62125557 0.74598318
vt 0.62739604 0.68866485
vt 0.65517420 0.56770715
vt 0.66061458 0.35567921
vt 0.66238385 0.83151975
vt 0.66487866 0.47554972
vt 0.67600523 0.64725215
vt 0.67643986 0.76323644
vt 0.69787908 0.84845996
vt 0.69841053 0.93715116
vt 0.71013011 0.69570605
vt 0.72196740 0.57531659
vt 0.73083118 0.78457699
vt 0.74317253 0.36396387
vt 0.74417336 0.48773390
vt 0.74959130 0.26653774
vt 0.75842861 0.62245326
vt 0.76410559 0.81592025
vt 0.76459167 0.70591054
vt 0.76710515 0.86339989
vt 0.80128246 0.92678874
vt 0.82106216 0.49696398
vt 0.82137073 0.58500138
vt 0.83309659 0.67159504
vt 0.83671485 0.74812927
vt 0.84929420 0.39574297
vt 0.85332201 0.79292146
vt 0.86630911 0.34672392
vt 0.87798301 0.81214800
vt 0.90236927 0.59669461
vt 0.90889348 0.51153926
vt 0.91696932 0.67438362
vt 0.94726943 0.67736193
vt 0.96824470 0.45018084
vt 0.97792379 0.55280394
vn -0.57735027 -0.57735027 0.57735027
vn -0.57735027 0.57735027 0.57735027
vn 0.57735027 0.57735027 0.57735027
vn 0.57735027 -0.57735027 0.57735027
vn -0.57735027 -0.57735027 -0.57735027
vn -0.57735027 0.57735027 -0.57735027
vn 0.57735027 0.57735027 -0.57735027
vn 0.57735027 -0.57735027 -0.57735027
vn 0.45772542 -0.53892528 0.70714001
vn 0.78320916 0.14631174 0.60429817
vn 0.65986276 -0.66323130 0.35313649
vn 8.9405341e-2 -0.89348514 0.44010338
vn 0.11101086 -0.98855862 0.10211975
vn -2.5738461e-2 -0.99625617 8.2529814e-2
vn 1.6207496e-2 -0.82622022 0.56311407
vn -4.3485112e-2 -0.99197283 0.11873896
vn -0.30770972 -0.76834458 0.56121417
vn 0.12061188 -0.10611478 0.98701187
vn -0.21107322 -5.2925739e-2 0.97603635
vn 7.6883368e-2 0.42955159 0.89976351
vn 0.61466027 0.29244986 0.73257480
vn 0.34371946 -0.23084551 0.91025671
vn 0.34310595 0.42042287 0.83995411
vn -0.87540338 2.8717083e-2 0.48253938
vn -0.98595206 9.8886114e-2 -0.13461084
vn -0.71765650 0.68762540 0.11018375
vn 0.80951637 -0.58697621 -1.1923494e-2
vn 0.91065506 0.27275173 0.31034473
vn 0.94375715 -9.6740944e-2 -0.31617026
vn 0.18091376 0.70925577 0.68134166
vn -1.7281577e-2 0.90750480 0.41968605
vn 0.31121185 0.91269140 0.26484257
vn 9.9760085e-4 -0.99872386 -5.0494128e-2
vn 0.15724693 -0.97977081 -0.12378434
vn 4.0978610e-2 -0.92939498 -0.36680475
vn 0.84144837 0.41275186 0.34871269
vn 0.74420262 0.66044465 9.9876547e-2
vn 0.86070070 0.45765541 -0.22303773
vn -0.48693885 -0.65608827 0.57657501
vn -3.2431490e-2 -0.98915844 0.14322633
vn -0.65541107 -0.75205744 -6.9612693e-2
vn 0.33593194 -0.86431780 -0.37430531
vn 0.57690328 -0.31877864 -0.75203908
vn 8.9607864e-2 -0.77774261 -0.62216306
vn -6.0322987e-2 0.62187191 0.78079220
vn -0.53679985 0.28812711 0.79298720
vn -0.36972540 0.84480435 0.38679288
vn -0.28292548 -0.90781525 -0.30955557
vn 2.6588801e-2 -0.99964607 -8.7902240e-4
vn 5.4170721e-2 -0.89281876 -0.44714672
vn 0.70171770 0.42910780 0.56873436
vn 0.47101296 0.59246196 0.65355613
vn 0.60654748 0.69862971 0.37949530
vn -0.34368343 -0.35949107 -0.86755281
vn -1.4232476e-2 -0.50330651 -0.86399073
vn -0.17337491 0.12398922 -0.97701986
vn -0.54534945 0.80423494 -0.23622053
vn -0.80268333 0.13678278 -0.58050835
vn -0.38343727 0.56159591 -0.73320249
vn 0.20786423 0.96267224 -0.17336266
vn -0.16812887 0.97591704 -0.13899140
vn -4.6587658e-2 0.76629788 -0.64079415
vn 0.55024257 0.45187008 -0.70217273
vn 0.43990605 0.86522859 -0.24054554
vn 0.16475731 0.61099998 -0.77429584
vn 1.6682152e-2 -0.61277675 -0.79007997
vn 0.22660715 -0.13489130 -0.96460019
vn -4.3207847e-2 8.2869120e-2 -0.99562332
g cube1_cube1_auv3
usemtl cube1_auv3
f 1/3/1 4/14/4 2/5/2
f 1/13/1 5/18/5 4/1/4
f 2/5/2 4/14/4 3/17/3
f 2/17/2 5/3/5 1/14/1
f 2/17/2 6/5/6 5/3/5
f 2/1/2 7/18/7 6/6/6
f 3/13/3 7/18/7 2/1/2
f 4/2/4 7/16/7 3/4/3
f 4/2/4 8/15/8 7/16/7
f 5/18/5 8/6/8 4/1/4
f 6/17/6 7/5/7 5/14/5
f 7/5/7 8/3/8 5/14/5
f 9/60/9 11/40/11 10/48/10
f 9/23/9 13/28/13 11/37/11
f 9/60/9 21/59/21 22/70/22
f 9/60/9 22/70/22 12/71/12
f 10/48/10 21/59/21 9/60/9
f 10/48/10 51/55/51 21/59/21
f 11/37/11 28/44/28 10/48/10
f 11/37/11 34/29/34 27/38/27
f 12/19/12 13/28/13 9/23/9
f 12/19/12 14/21/14 13/28/13
f 12/19/12 15/9/15 14/21/14
f 12/71/12 22/70/22 15/79/15
f 13/28/13 33/24/33 34/29/34
f 13/28/13 34/29/34 11/37/11
f 14/21/14 15/9/15 16/11/16
f 14/21/14 33/24/33 13/28/13
f 15/9/15 17/7/17 16/11/16
f 15/79/15 19/82/19 17/83/17
f 15/79/15 22/70/22 18/77/18
f 16/11/16 33/24/33 14/21/14
f 17/7/17 40/12/40 16/11/16
f 17/83/17 46/80/46 39/85/39
f 18/77/18 19/82/19 15/79/15
f 18/77/18 20/75/20 19/82/19
f 18/77/18 23/68/23 20/75/20
f 19/82/19 45/74/45 46/80/46
f 19/82/19 46/80/46 17/83/17
f 20/75/20 30/69/30 45/74/45
f 20/75/20 45/74/45 19/82/19
f 21/59/21 23/68/23 22/70/22
f 21/59/21 52/63/52 23/68/23
f 22/70/22 23/68/23 18/77/18
f 23/68/23 30/69/30 20/75/20
f 24/81/24 26/72/26 25/76/25
f 24/81/24 41/78/41 39/84/39
f 24/81/24 46/80/46 26/72/26
f 25/76/25 41/78/41 24/81/24
f 25/76/25 58/64/58 41/78/41
f 26/72/26 46/80/46 47/73/47
f 26/72/26 58/64/58 25/76/25
f 27/38/27 28/44/28 11/37/11
f 27/38/27 29/36/29 28/44/28
f 27/38/27 34/29/34 42/34/42
f 27/38/27 42/34/42 29/46/29
f 28/44/28 36/49/36 10/48/10
f 28/44/28 38/41/38 36/49/36
f 29/36/29 38/41/38 28/44/28
f 29/46/29 42/34/42 43/43/43
f 29/36/29 43/33/43 38/41/38
f 30/69/30 32/61/32 31/67/31
f 30/69/30 52/63/52 32/61/32
f 31/67/31 45/74/45 30/69/30
f 31/67/31 61/62/61 47/73/47
f 32/61/32 52/63/52 53/58/53
f 32/61/32 61/62/61 31/67/31
f 32/61/32 64/52/64 60/57/60
f 33/24/33 16/11/16 49/22/49
f 33/24/33 35/27/35 34/29/34
f 33/24/33 50/26/50 35/27/35
f 35/27/35 42/34/42 34/29/34
f 35/27/35 66/35/66 44/32/44
f 36/49/36 38/41/38 37/51/37
f 36/49/36 53/58/53 51/55/51
f 37/51/37 53/58/53 36/49/36
f 37/51/37 64/52/64 53/58/53
f 38/41/38 43/33/43 63/45/63
f 38/41/38 64/52/64 37/51/37
f 39/8/39 40/12/40 17/7/17
f 39/8/39 41/10/41 40/12/40
f 39/85/39 46/80/46 24/81/24
f 40/12/40 48/20/48 49/22/49
f 40/12/40 49/22/49 16/11/16
f 41/10/41 48/20/48 40/12/40
f 41/78/41 58/64/58 48/66/48
f 42/34/42 44/32/44 43/43/43
f 44/32/44 42/34/42 35/27/35
f 44/30/44 67/39/67 43/33/43
f 45/74/45 47/73/47 46/80/46
f 47/73/47 45/74/45 31/67/31
f 47/73/47 57/65/57 26/72/26
f 48/20/48 50/26/50 49/22/49
f 48/20/48 54/25/54 50/26/50
f 48/66/48 58/64/58 54/54/54
f 49/22/49 50/26/50 33/24/33
f 50/26/50 54/25/54 55/31/55
f 50/26/50 66/35/66 35/27/35
f 51/55/51 10/48/10 36/49/36
f 51/55/51 52/63/52 21/59/21
f 51/55/51 53/58/53 52/63/52
f 52/63/52 30/69/30 23/68/23
f 53/58/53 64/52/64 32/61/32
f 54/54/54 56/47/56 55/31/55
f 54/54/54 59/56/59 56/47/56
f 55/31/55 66/35/66 50/26/50
f 55/31/55 68/42/68 66/35/66
f 56/47/56 62/53/62 68/42/68
f 56/47/56 68/42/68 55/31/55
f 57/65/57 47/73/47 61/62/61
f 57/65/57 58/64/58 26/72/26
f 57/65/57 59/56/59 58/64/58
f 57/65/57 61/62/61 59/56/59
f 58/64/58 59/56/59 54/54/54
f 59/56/59 61/62/61 62/53/62
f 59/56/59 62/53/62 56/47/56
f 60/57/60 61/62/61 32/61/32
f 60/57/60 62/53/62 61/62/61
f 60/57/60 64/52/64 62/53/62
f 62/53/62 64/52/64 65/50/65
f 63/45/63 64/52/64 38/41/38
f 63/45/63 65/50/65 64/52/64
f 63/45/63 67/39/67 65/50/65
f 65/50/65 67/39/67 68/42/68
f 65/50/65 68/42/68 62/53/62
f 66/35/66 67/39/67 44/30/44
f 66/35/66 68/42/68 67/39/67
f 67/39/67 63/45/63 43/33/43
