# Exported from Wings 3D 0.99.03
mtllib Building_Workshop.mtl
o cube1
#23 vertices, 42 faces
v -0.50000000 -0.50000000 2.50000000
v -0.50000000 -0.40000000 2.50000000
v 2.50000000 -0.40000000 2.50000000
v 2.50000000 -0.50000000 2.50000000
v -0.50000000 -0.50000000 -0.50000000
v -0.50000000 -0.40000000 -0.50000000
v 2.50000000 -0.40000000 -0.50000000
v 2.50000000 -0.50000000 -0.50000000
v -0.50000000 -0.40000000 1.50000000
v -0.50000000 -0.40000000 0.50000000
v 2.50000000 -0.40000000 1.50000000
v 1.50000000 -0.40000000 -0.50000000
v 0.50000000 -0.40000000 0.50000000
v 1.50000000 -0.40000000 1.50000000
v 0.50000000 -0.40000000 1.50000000
v 1.50000000 0.10000000 1.50000000
v 2.50000000 0.10000000 1.50000000
v 2.50000000 0.10000000 -0.50000000
v 1.50000000 0.10000000 -0.50000000
v 0.50000000 0.10000000 1.50000000
v 0.50000000 0.10000000 0.50000000
v -0.50000000 0.10000000 0.50000000
v -0.50000000 0.10000000 1.50000000
vt -1.00000000 0.20000000
vt -1.00000000 0.55000000
vt -1.00000000 -1.00000000
vt -1.00000000 0.45000000
vt -1.00000000 0.20000000
vt -1.00000000 0.30000000
vt -1.00000000 0.20000000
vt -1.00000000 0.30000000
vt -1.00000000 2.00000000
vt -1.00000000 0.30000000
vt -1.00000000 -1.00000000
vt -1.00000000 0.80000000
vt -1.00000000 2.4424907e-15
vt -1.00000000 1.00000000
vt -1.00000000 2.00000000
vt -0.50000000 0.25000000
vt -0.50000000 0.75000000
vt 3.3306691e-16 0.30000000
vt 3.3306691e-16 0.80000000
vt 4.4408921e-16 0.25000000
vt 6.6613381e-16 0.25000000
vt 6.6613381e-16 1.50000000
vt 8.8817842e-16 -0.50000000
vt 8.8817842e-16 0.80000000
vt 9.9920072e-16 0.25000000
vt 1.1102230e-15 1.1102230e-15
vt 1.1102230e-15 0.25000000
vt 1.1102230e-15 0.75000000
vt 1.1102230e-15 1.00000000
vt 1.3322676e-15 0.30000000
vt 1.4432899e-15 0.75000000
vt 1.5543122e-15 0.30000000
vt 1.6653345e-15 1.00000000
vt 1.9984014e-15 0.80000000
vt 2.3314684e-15 2.8865799e-15
vt 1.00000000 0.80000000
vt 1.00000000 0.25000000
vt 1.00000000 1.50000000
vt 1.00000000 0.30000000
vt 1.00000000 1.1102230e-15
vt 1.00000000 0.25000000
vt 1.00000000 0.75000000
vt 1.00000000 1.00000000
vt 1.00000000 0.25000000
vt 1.00000000 0.75000000
vt 1.00000000 -0.50000000
vt 1.00000000 1.9984014e-15
vt 1.00000000 0.75000000
vt 1.00000000 2.00000000
vt 1.00000000 0.75000000
vt 1.50000000 0.75000000
vt 1.50000000 0.25000000
vt 2.00000000 0.30000000
vt 2.00000000 -1.00000000
vt 2.00000000 -1.00000000
vt 2.00000000 0.20000000
vt 2.00000000 0.30000000
vt 2.00000000 2.00000000
vt 2.00000000 0.20000000
vt 2.00000000 0.80000000
vt 2.00000000 8.8817842e-16
vt 2.00000000 0.45000000
vt 2.00000000 0.55000000
vt 2.00000000 0.20000000
vt 2.00000000 0.30000000
vn -0.90453403 -0.30151134 0.30151134
vn -0.33333333 0.66666667 0.66666667
vn 0.30151134 0.90453403 0.30151134
vn 0.57735027 -0.57735027 0.57735027
vn -0.57735027 -0.57735027 -0.57735027
vn -0.40824829 0.81649658 -0.40824829
vn 0.70710678 0.0000000e+0 -0.70710678
vn 0.66666667 -0.33333333 -0.66666667
vn -0.80178373 0.26726124 0.53452248
vn -0.96225045 0.19245009 -0.19245009
vn 0.94280904 0.23570226 0.23570226
vn -0.21821789 0.43643578 -0.87287156
vn 0.40824829 0.81649658 -0.40824829
vn -0.40824829 0.81649658 0.40824829
vn 0.23570226 0.94280904 0.23570226
vn -0.57735027 0.57735027 0.57735027
vn 0.57735027 0.57735027 0.57735027
vn 0.57735027 0.57735027 -0.57735027
vn -0.57735027 0.57735027 -0.57735027
vn 0.57735027 0.57735027 0.57735027
vn 0.57735027 0.57735027 -0.57735027
vn -0.33333333 0.66666667 -0.66666667
vn -0.81649658 0.40824829 0.40824829
g cube1_cube1_auv
usemtl cube1_auv
f 1/4/1 4/62/4 2/2/2
f 1/55/1 5/58/5 4/11/4
f 1/56/1 9/39/9 10/18/10
f 1/56/1 10/18/10 5/7/5
f 2/2/2 4/62/4 3/63/3
f 2/53/2 9/39/9 1/56/1
f 2/3/2 15/35/15 9/13/9
f 3/54/3 15/35/15 2/3/2
f 4/11/4 5/58/5 8/9/8
f 4/5/4 11/30/11 3/6/3
f 5/7/5 10/18/10 6/8/6
f 5/64/5 12/32/12 8/1/8
f 6/65/6 12/32/12 5/64/5
f 6/15/6 13/33/13 12/49/12
f 7/57/7 11/30/11 8/59/8
f 7/10/7 19/24/19 18/12/18
f 8/59/8 11/30/11 4/5/4
f 8/1/8 12/32/12 7/10/7
f 9/27/9 20/42/20 23/28/23
f 10/14/10 13/33/13 6/15/6
f 10/37/10 22/48/22 13/21/13
f 10/18/10 23/36/23 22/19/22
f 11/30/11 7/57/7 17/34/17
f 11/61/11 14/47/14 3/54/3
f 11/44/11 17/45/17 14/25/14
f 12/49/12 13/33/13 14/47/14
f 13/41/13 20/28/20 15/20/15
f 13/21/13 22/48/22 21/28/21
f 14/47/14 15/35/15 3/54/3
f 14/25/14 17/45/17 16/31/16
f 14/52/14 19/17/19 12/16/12
f 15/35/15 14/47/14 13/33/13
f 15/41/15 20/42/20 9/27/9
f 16/51/16 19/17/19 14/52/14
f 17/46/17 19/22/19 16/23/16
f 18/60/18 17/34/17 7/57/7
f 18/38/18 19/22/19 17/46/17
f 19/24/19 7/10/7 12/32/12
f 20/40/20 22/29/22 23/26/23
f 21/50/21 20/28/20 13/41/13
f 21/43/21 22/29/22 20/40/20
f 23/36/23 10/18/10 9/39/9
