# Exported from Wings 3D 0.99.03
mtllib Creature2.mtl
o cube2
#104 vertices, 212 faces
v 6.4197496e-2 -7.3368317e-2 1.9776321e-2
v 6.4197496e-2 -5.2984828e-2 1.3184214e-2
v 6.4197496e-2 -5.2984828e-2 -1.3184214e-2
v 6.4197496e-2 -7.3368317e-2 -1.9776321e-2
v 6.4197496e-2 -0.11005860 -1.9776321e-2
v 6.4197496e-2 -0.17936246 -1.3184214e-2
v 6.4197496e-2 -0.17936246 1.3184214e-2
v 6.4197496e-2 -0.11005860 1.9776321e-2
v -3.2098748e-2 -0.22624448 1.3184214e-2
v 3.2098748e-2 -0.22624448 1.3184214e-2
v 3.2098748e-2 -0.22624448 -1.3184214e-2
v -3.2098748e-2 -0.22624448 -1.3184214e-2
v 3.2098748e-2 -3.0562991e-2 1.3184214e-2
v -3.2098748e-2 -3.0562991e-2 1.3184214e-2
v -3.2098748e-2 -3.0562991e-2 -1.3184214e-2
v 3.2098748e-2 -3.0562991e-2 -1.3184214e-2
v -6.4197496e-2 -0.17936246 1.3184214e-2
v -6.4197496e-2 -0.17936246 -1.3184214e-2
v -6.4197496e-2 -0.11005860 -1.9776321e-2
v -6.4197496e-2 -7.3368317e-2 -1.9776321e-2
v -6.4197496e-2 -5.2984828e-2 -1.3184214e-2
v -6.4197496e-2 -5.2984828e-2 1.3184214e-2
v -6.4197496e-2 -7.3368317e-2 1.9776321e-2
v -6.4197496e-2 -0.11005860 1.9776321e-2
v -4.4938247e-2 -0.11107777 -2.6368427e-2
v -3.2098748e-2 -0.17630493 -2.6368427e-2
v 3.2098748e-2 -0.17630493 -2.6368427e-2
v 4.4938247e-2 -0.11107777 -2.6368427e-2
v 2.8888873e-2 -9.4770979e-2 -2.6368427e-2
v 1.2839499e-2 -9.0694282e-2 -2.6368427e-2
v 1.2839499e-2 -7.4387491e-2 -2.6368427e-2
v 2.8888873e-2 -7.0310793e-2 -2.6368427e-2
v 4.4938247e-2 -6.6234096e-2 -2.6368427e-2
v 3.2098748e-2 -4.9927305e-2 -2.6368427e-2
v -3.2098748e-2 -4.9927305e-2 -2.6368427e-2
v -4.4938247e-2 -6.6234096e-2 -2.6368427e-2
v -2.8888873e-2 -7.0310793e-2 -2.6368427e-2
v -1.2839499e-2 -7.4387491e-2 -2.6368427e-2
v -1.2839499e-2 -9.0694282e-2 -2.6368427e-2
v -2.8888873e-2 -9.4770979e-2 -2.6368427e-2
v -5.7777746e-2 -8.7636758e-2 2.6368427e-2
v -5.7777746e-2 -7.1329968e-2 2.6368427e-2
v -4.4938247e-2 -7.1329968e-2 2.6368427e-2
v -4.4938247e-2 -8.7636758e-2 2.6368427e-2
v 3.2098748e-2 -0.17630493 2.6368427e-2
v -3.2098748e-2 -0.17630493 2.6368427e-2
v -4.4938247e-2 -0.11107777 2.6368427e-2
v -2.8888873e-2 -9.4770979e-2 2.6368427e-2
v -1.2839499e-2 -9.0694282e-2 2.6368427e-2
v -1.2839499e-2 -7.4387491e-2 2.6368427e-2
v -2.8888873e-2 -7.0310793e-2 2.6368427e-2
v -4.4938247e-2 -6.6234096e-2 2.6368427e-2
v -3.2098748e-2 -4.9927305e-2 2.6368427e-2
v 3.2098748e-2 -4.9927305e-2 2.6368427e-2
v 4.4938247e-2 -6.6234096e-2 2.6368427e-2
v 2.8888873e-2 -7.0310793e-2 2.6368427e-2
v 1.2839499e-2 -7.4387491e-2 2.6368427e-2
v 1.2839499e-2 -9.0694282e-2 2.6368427e-2
v 2.8888873e-2 -9.4770979e-2 2.6368427e-2
v 4.4938247e-2 -0.11107777 2.6368427e-2
v -5.7777746e-2 -7.1329968e-2 -2.6368427e-2
v -5.7777746e-2 -8.7636758e-2 -2.6368427e-2
v -4.4938247e-2 -8.7636758e-2 -2.6368427e-2
v -4.4938247e-2 -7.1329968e-2 -2.6368427e-2
v 5.7777746e-2 -8.7636758e-2 -2.6368427e-2
v 5.7777746e-2 -7.1329968e-2 -2.6368427e-2
v 4.4938247e-2 -7.1329968e-2 -2.6368427e-2
v 4.4938247e-2 -8.7636758e-2 -2.6368427e-2
v 5.7777746e-2 -7.1329968e-2 2.6368427e-2
v 5.7777746e-2 -8.7636758e-2 2.6368427e-2
v 4.4938247e-2 -8.7636758e-2 2.6368427e-2
v 4.4938247e-2 -7.1329968e-2 2.6368427e-2
v 3.8518497e-2 -8.7636758e-2 -1.3184214e-2
v 3.8518497e-2 -7.1329968e-2 -1.3184214e-2
v 3.8518497e-2 -7.1329968e-2 1.3184214e-2
v 3.8518497e-2 -8.7636758e-2 1.3184214e-2
v 3.2098748e-2 -6.3176572e-2 -1.3184214e-2
v 1.9259249e-2 -6.3176572e-2 -1.3184214e-2
v 1.9259249e-2 -6.3176572e-2 1.3184214e-2
v 3.2098748e-2 -6.3176572e-2 1.3184214e-2
v 1.2839499e-2 -7.1329968e-2 -1.3184214e-2
v 1.2839499e-2 -8.7636758e-2 -1.3184214e-2
v 1.2839499e-2 -8.7636758e-2 1.3184214e-2
v 1.2839499e-2 -7.1329968e-2 1.3184214e-2
v 1.9259249e-2 -9.5790154e-2 -1.3184214e-2
v 3.2098748e-2 -9.5790154e-2 -1.3184214e-2
v 3.2098748e-2 -9.5790154e-2 1.3184214e-2
v 1.9259249e-2 -9.5790154e-2 1.3184214e-2
v -1.2839499e-2 -8.7636758e-2 -1.3184214e-2
v -1.2839499e-2 -7.1329968e-2 -1.3184214e-2
v -1.2839499e-2 -7.1329968e-2 1.3184214e-2
v -1.2839499e-2 -8.7636758e-2 1.3184214e-2
v -1.9259249e-2 -6.3176572e-2 -1.3184214e-2
v -3.2098748e-2 -6.3176572e-2 -1.3184214e-2
v -3.2098748e-2 -6.3176572e-2 1.3184214e-2
v -1.9259249e-2 -6.3176572e-2 1.3184214e-2
v -3.8518497e-2 -7.1329968e-2 -1.3184214e-2
v -3.8518497e-2 -8.7636758e-2 -1.3184214e-2
v -3.8518497e-2 -8.7636758e-2 1.3184214e-2
v -3.8518497e-2 -7.1329968e-2 1.3184214e-2
v -3.2098748e-2 -9.5790154e-2 -1.3184214e-2
v -1.9259249e-2 -9.5790154e-2 -1.3184214e-2
v -1.9259249e-2 -9.5790154e-2 1.3184214e-2
v -3.2098748e-2 -9.5790154e-2 1.3184214e-2
vt 0.0000000e+0 0.41606378
vt 0.0000000e+0 0.59463229
vt 0.0000000e+0 0.74996296
vt 1.3877788e-17 0.59463229
vt 2.7755576e-17 0.12244870
vt 2.7755576e-17 0.52564527
vt 1.8585565e-4 0.30701992
vt 1.7842702e-3 0.47186550
vt 1.6655373e-2 0.63871624
vt 1.7060514e-2 0.70603421
vt 1.9580871e-2 0.41236425
vt 1.9867940e-2 0.36819549
vt 4.1875043e-2 0.74415712
vt 4.1919478e-2 0.60010809
vt 4.9434312e-2 0.63851897
vt 4.9839452e-2 0.70583694
vt 5.4195132e-2 0.36822800
vt 5.4223585e-2 0.41235226
vt 5.4261789e-2 0.30602025
vt 5.4604358e-2 0.42611694
vt 7.3772716e-2 0.71720008
vt 7.5838026e-2 0.63633587
vt 8.1790966e-2 0.75376920
vt 8.2973083e-2 0.74979504
vt 8.2973083e-2 0.59958422
vt 8.8959659e-2 0.59572180
vt 8.9101427e-2 0.52485400
vt 8.9698763e-2 0.0000000e+0
vt 9.0362857e-2 0.13550796
vt 9.0568186e-2 0.46505998
vt 9.2682610e-2 0.71363819
vt 9.4378572e-2 0.63276540
vt 9.6516756e-2 0.34925126
vt 9.7238327e-2 0.41295212
vt 0.10243867 0.59463229
vt 0.10243867 0.52564527
vt 0.11711823 0.70339990
vt 0.12065226 0.63617353
vt 0.12329268 0.74204888
vt 0.12994453 0.59815351
vt 0.13879965 0.36014833
vt 0.13912591 0.40236063
vt 0.14985256 0.70512071
vt 0.15338659 0.63789435
vt 0.16485257 0.74979504
vt 0.17207324 0.59463229
vt 0.17207324 0.66193409
vt 0.17471681 0.61935305
vt 0.20533539 0.40269866
vt 0.20610286 0.36053816
vt 0.20868256 0.69140938
vt 0.21036489 0.66431136
vt 0.21300846 0.62173031
vt 0.21469079 0.59463229
vt 0.24702217 0.41366330
vt 0.24846221 0.35018337
vt 0.25324050 0.46583907
vt 0.25400930 0.52564527
vt 0.25735572 0.13651423
vt 0.25974553 9.5735221e-4
vt 0.27039689 0.52564527
vt 0.27039689 0.59463229
vt 0.27753701 0.69568409
vt 0.27921935 0.66858607
vt 0.28186292 0.62600502
vt 0.28354525 0.59890700
vt 0.28946838 0.42707494
vt 0.29003924 0.41332387
vt 0.29068350 0.36968789
vt 0.29126052 0.30745978
vt 0.31751100 0.67096334
vt 0.32015457 0.66193409
vt 0.32015457 0.62838229
vt 0.32279814 0.61935305
vt 0.32441961 0.41382051
vt 0.32475730 0.37011618
vt 0.34180297 0.47373665
vt 0.34494369 0.41781460
vt 0.34534360 0.30921244
vt 0.34788573 0.12282778
vt 0.34788573 0.12458450
vt 0.34788573 0.41658572
vt 0.34881957 0.30725159
vt 0.35094673 0.47260570
vt 0.35676388 0.69140938
vt 0.35844622 0.66431136
vt 0.36108979 0.62173031
vt 0.36277212 0.59463229
vt 0.36867076 0.36843903
vt 0.36868190 0.41251690
vt 0.37283556 0.52564527
vt 0.37283556 0.59463229
vt 0.37283556 0.52564527
vt 0.37283556 0.59463229
vt 0.40288024 0.30607894
vt 0.40299309 0.36832345
vt 0.40320964 0.41229108
vt 0.40361209 0.42603121
vt 0.42561834 0.69568409
vt 0.42730067 0.66858607
vt 0.42994424 0.62600502
vt 0.43162658 0.59890700
vt 0.43701067 0.0000000e+0
vt 0.43826049 0.13549932
vt 0.43848894 0.52493002
vt 0.43959992 0.46506232
vt 0.44526557 0.34918238
vt 0.44615624 0.41293798
vt 0.46559232 0.67096334
vt 0.46823589 0.62838229
vt 0.46823589 0.59463229
vt 0.46823589 0.73522152
vt 0.48515777 0.63100598
vt 0.48577887 0.69914328
vt 0.48751821 0.35993333
vt 0.48794565 0.40220570
vt 0.51097376 0.73308674
vt 0.51099396 0.59631447
vt 0.51833566 0.63070355
vt 0.51895676 0.69884085
vt 0.54079378 0.59463229
vt 0.54079378 0.52564527
vt 0.54514316 0.63141330
vt 0.54550439 0.70263147
vt 0.55422109 0.40219613
vt 0.55480914 0.36004339
vt 0.55596696 0.73905289
vt 0.55636779 0.59521947
vt 0.55636779 0.73834623
vt 0.56224282 0.59463229
vt 0.56840947 0.70241597
vt 0.57187762 0.63128138
vt 0.59509721 0.69978725
vt 0.59601599 0.41299490
vt 0.59715260 0.34953222
vt 0.59869056 0.63174193
vt 0.60157846 0.73434883
vt 0.60252672 0.46509224
vt 0.60356305 0.52489295
vt 0.60522221 0.13591175
vt 0.60709694 3.7757081e-4
vt 0.60752567 0.59770592
vt 0.62823031 0.70153694
vt 0.63182366 0.63349163
vt 0.63846346 0.42622023
vt 0.63891938 0.41248581
vt 0.63945216 0.36881236
vt 0.63976826 0.30663925
vt 0.64418248 0.73834623
vt 0.65031641 0.59789088
vt 0.65031641 0.61472564
vt 0.65109882 0.65737863
vt 0.67331711 0.41286241
vt 0.67352087 0.36908194
vt 0.68519504 0.62187645
vt 0.68534913 0.69158777
vt 0.68539108 0.59463229
vt 0.68556703 0.66453196
vt 0.69112471 0.47283539
vt 0.69377904 0.30812346
vt 0.69419007 0.41675282
vt 0.69569381 0.12370022
vt 0.69569381 0.43073914
vt 0.69569381 0.49690379
vt 0.69569381 0.51266068
vt 0.69623068 0.38807949
vt 0.71375682 0.48011936
vt 0.71983286 0.42570963
vt 0.72104082 0.32972542
vt 0.73181984 0.51368823
vt 0.73640716 0.47925122
vt 0.74056791 0.14863894
vt 0.74243853 0.0000000e+0
vt 0.74988285 0.48011936
vt 0.74988285 0.49793134
vt 0.74988285 0.48114690
vt 0.74988285 0.49690379
vt 0.75416969 0.66452706
vt 0.75435723 0.59463229
vt 0.75438635 0.69159116
vt 0.75455906 0.62186971
vt 0.76794587 0.49690379
vt 0.78600888 0.49690379
vt 0.78869107 0.65735388
vt 0.78937866 0.61412793
vt 0.78937866 0.61469732
vt 0.78937866 0.65678958
vt 0.80407190 0.49587624
vt 0.80407190 0.51368823
vt 0.80538872 0.48011936
vt 0.80954947 0.14950708
vt 0.81142009 8.6813244e-4
vt 0.82313018 0.69157811
vt 0.82330520 0.42701183
vt 0.82378115 0.66451696
vt 0.82407731 0.62185886
vt 0.82451316 0.33102762
vt 0.82471608 0.59463229
vt 0.84731003 0.43264723
vt 0.84784690 0.38998758
vt 0.84784690 0.38998758
vt 0.84838377 0.43264723
vt 0.87118065 0.33102762
vt 0.87238861 0.42701183
vt 0.88427371 8.6813244e-4
vt 0.88614433 0.14950708
vt 0.89030509 0.48011936
vt 0.89215881 0.69266080
vt 0.89237509 0.66560913
vt 0.89343249 0.62296515
vt 0.89367376 0.59571711
vt 0.92695263 0.65901128
vt 0.92842321 0.61637587
vt 0.95325527 0.0000000e+0
vt 0.95512589 0.14863894
vt 0.95928665 0.47925122
vt 0.97465299 0.32972542
vt 0.97586095 0.42570963
vt 0.99946313 0.38807949
vt 1.00000000 0.43073914
vn 0.89233229 0.20729814 0.40096204
vn 0.75598760 0.48335598 0.44141788
vn 0.65261755 0.46169792 -0.60077065
vn 0.91050802 0.24529389 -0.33287544
vn 0.88061135 -3.8866832e-2 -0.47224255
vn 0.75964835 -0.31458815 -0.56918247
vn 0.79702815 -0.19894429 0.57023442
vn 0.79399793 -6.3289376e-2 0.60461702
vn -0.38873469 -0.68163290 0.61988864
vn 0.38401583 -0.74506182 0.54535743
vn 0.38873469 -0.68163290 -0.61988864
vn -0.38401583 -0.74506182 -0.54535743
vn 0.27235394 0.84341215 0.46311907
vn -0.25142544 0.87996441 0.40304825
vn -0.27235394 0.84341215 -0.46311907
vn 0.25142544 0.87996441 -0.40304825
vn -0.82926277 -0.27033858 0.48912198
vn -0.69958779 -0.23537846 -0.67466577
vn -0.90134642 -4.5089053e-2 -0.43074542
vn -0.89233229 0.20729814 -0.40096204
vn -0.66329763 0.55259697 -0.50465121
vn -0.76211391 0.39452026 0.51335772
vn -0.91050802 0.24529389 0.33287544
vn -0.78033018 -5.1296008e-2 0.62326040
vn -0.17420913 -5.8034619e-2 -0.98299703
vn -0.14785239 -0.11624276 -0.98215441
vn 0.10539659 -0.12011280 -0.98714967
vn 0.14925409 -4.9721300e-2 -0.98754798
vn -5.9066540e-2 0.71578671 -0.69581645
vn 0.35158437 0.43676383 -0.82802523
vn 0.64067464 -0.30211596 -0.70587673
vn -0.15489447 -0.89392782 -0.42059572
vn 0.22351240 0.29231315 -0.92983613
vn 0.13222515 0.24442674 -0.96061026
vn -9.9167145e-2 0.25748907 -0.96117910
vn -0.22351240 0.29231315 -0.92983613
vn -6.1394017e-2 -0.64052326 -0.76548071
vn -0.48734142 -0.54876053 -0.67923502
vn -0.50647219 0.26052933 -0.82195523
vn 0.20869327 0.77563508 -0.59568225
vn -0.27627491 -4.7431972e-2 0.95990749
vn -0.36714829 0.18901687 0.91075505
vn 0.25765430 -0.26704868 0.92860070
vn 0.48573204 0.24493501 0.83908952
vn 0.14785239 -0.11624276 0.98215441
vn -0.10539659 -0.12011280 0.98714967
vn -0.14925409 -4.9721300e-2 0.98754798
vn 5.9066540e-2 0.71578671 0.69581645
vn -0.35158437 0.43676383 0.82802523
vn -0.64067464 -0.30211596 0.70587673
vn 0.15489447 -0.89392782 0.42059572
vn -0.22351240 0.29231315 0.92983613
vn -0.13222515 0.24442674 0.96061026
vn 9.9167145e-2 0.25748907 0.96117910
vn 0.22351240 0.29231315 0.92983613
vn 6.1394017e-2 -0.64052326 0.76548071
vn 0.64184864 -0.48190705 0.59648631
vn 0.36548089 0.28124539 0.88731322
vn -0.20869327 0.77563508 0.59568225
vn 0.17420913 -5.8034619e-2 0.98299703
vn -0.34808460 0.29759717 -0.88897302
vn -0.26803088 -2.7284339e-2 -0.96302389
vn 0.42290818 0.29216815 -0.85777995
vn 0.46221893 -0.25907317 -0.84807709
vn 0.27627491 -4.7431972e-2 -0.95990749
vn 0.36714829 0.18901687 -0.91075505
vn -0.25765430 -0.26704868 -0.92860070
vn -0.48573204 0.24493501 -0.83908952
vn 0.34808460 0.29759717 0.88897302
vn 0.26803088 -2.7284339e-2 0.96302389
vn -0.42290818 0.29216815 0.85777995
vn -0.46221893 -0.25907317 0.84807709
vn -0.92191318 0.32264514 -0.21442063
vn -0.90860333 -0.41251354 -6.5364849e-2
vn -0.92191318 -0.32264514 0.21442063
vn -0.91601658 0.38358225 0.11738096
vn -0.42134027 -0.86644993 0.26783746
vn 0.41147611 -0.89083915 0.19259547
vn 0.45084996 -0.86305232 -0.22776087
vn -0.31496130 -0.93255914 -0.17644496
vn 0.94452141 -0.32628581 3.7641431e-2
vn 0.95986849 0.27962752 -2.1469399e-2
vn 0.96505413 0.26032406 3.0031861e-2
vn 0.94479792 -0.32669211 -2.5082950e-2
vn 0.44217730 0.89479599 6.1801073e-2
vn -0.34824717 0.93703536 2.6241986e-2
vn -0.43236446 0.89755216 -8.6377588e-2
vn 0.40810005 0.91248628 -2.8690256e-2
vn -0.94452141 0.32628581 -3.7641431e-2
vn -0.95986849 -0.27962752 2.1469399e-2
vn -0.94452141 -0.32628581 -3.7641431e-2
vn -0.95986849 0.27962752 2.1469399e-2
vn -0.45084996 -0.86305232 0.22776087
vn 0.31496130 -0.93255914 0.17644496
vn 0.42134027 -0.86644993 -0.26783746
vn -0.41147611 -0.89083915 -0.19259547
vn 0.92191318 -0.32264514 -0.21442063
vn 0.91601658 0.38358225 -0.11738096
vn 0.92191318 0.32264514 0.21442063
vn 0.90860333 -0.41251354 6.5364849e-2
vn 0.43236446 0.89755216 8.6377588e-2
vn -0.40810005 0.91248628 2.8690256e-2
vn -0.44217730 0.89479599 -6.1801073e-2
vn 0.34824717 0.93703536 -2.6241986e-2
g cube2_cube2_auv
usemtl cube2_auv
f 1/204/1 4/218/4 2/207/2
f 1/204/1 70/201/70 8/203/8
f 2/207/2 4/218/4 3/216/3
f 2/93/2 16/62/16 13/61/13
f 2/77/2 55/67/55 1/78/1
f 3/94/3 16/62/16 2/93/2
f 3/84/3 34/106/34 16/105/16
f 4/218/4 1/204/1 5/217/5
f 4/82/4 33/98/33 3/84/3
f 4/177/4 66/170/66 33/165/33
f 5/217/5 7/206/7 6/215/6
f 5/217/5 66/220/66 4/218/4
f 6/80/6 28/95/28 5/83/5
f 7/206/7 5/217/5 8/203/8
f 7/206/7 10/205/10 6/215/6
f 7/81/7 45/59/45 10/60/10
f 7/81/7 60/70/60 45/59/45
f 8/203/8 5/217/5 1/204/1
f 8/79/8 60/70/60 7/81/7
f 8/79/8 70/76/70 60/70/60
f 9/122/9 12/121/12 10/91/10
f 9/192/9 17/191/17 12/173/12
f 9/28/9 46/29/46 17/5/17
f 10/91/10 12/121/12 11/92/11
f 10/60/10 46/29/46 9/28/9
f 11/214/11 6/215/6 10/205/10
f 11/103/11 27/104/27 6/80/6
f 12/173/12 17/191/17 18/172/18
f 12/141/12 27/104/27 11/103/11
f 13/61/13 16/62/16 14/36/14
f 13/58/13 54/57/54 2/77/2
f 14/36/14 16/62/16 15/35/15
f 14/27/14 54/57/54 13/58/13
f 15/35/15 21/2/21 14/36/14
f 15/139/15 35/138/35 21/159/21
f 16/105/16 35/138/35 15/139/15
f 17/191/17 19/169/19 18/172/18
f 17/5/17 47/19/47 24/7/24
f 18/162/18 26/140/26 12/141/12
f 19/169/19 23/194/23 20/168/20
f 19/160/19 25/148/25 18/162/18
f 19/160/19 62/154/62 25/148/25
f 20/168/20 22/190/22 21/171/21
f 20/168/20 62/166/62 19/169/19
f 21/159/21 36/145/36 20/161/20
f 22/6/22 14/36/14 21/2/21
f 22/190/22 20/168/20 23/194/23
f 22/8/22 52/20/52 53/30/53
f 22/8/22 53/30/53 14/27/14
f 23/194/23 19/169/19 24/197/24
f 23/1/23 52/20/52 22/8/22
f 24/197/24 19/169/19 17/191/17
f 24/197/24 42/199/42 23/194/23
f 24/7/24 47/19/47 41/12/41
f 25/148/25 39/126/39 26/140/26
f 25/148/25 62/154/62 40/135/40
f 26/140/26 18/162/18 25/148/25
f 26/140/26 27/104/27 12/141/12
f 26/140/26 39/126/39 27/104/27
f 27/104/27 28/95/28 6/80/6
f 27/104/27 30/115/30 28/95/28
f 28/95/28 30/115/30 29/107/29
f 28/95/28 65/89/65 5/83/5
f 28/95/28 68/96/68 65/89/65
f 29/107/29 68/96/68 28/95/28
f 29/117/29 86/120/86 68/127/68
f 30/115/30 27/104/27 39/126/39
f 30/115/30 38/125/38 31/116/31
f 30/112/30 86/120/86 29/117/29
f 31/116/31 34/106/34 32/108/32
f 31/212/31 82/210/82 30/213/30
f 32/108/32 34/106/34 33/98/33
f 32/39/32 78/43/78 31/45/31
f 33/98/33 67/97/67 32/108/32
f 34/106/34 3/84/3 33/98/33
f 34/106/34 31/116/31 35/138/35
f 34/106/34 35/138/35 16/105/16
f 35/138/35 31/116/31 38/125/38
f 35/138/35 36/145/36 21/159/21
f 35/138/35 37/134/37 36/145/36
f 36/188/36 61/182/61 20/174/20
f 36/145/36 64/146/64 61/153/61
f 37/134/37 35/138/35 38/125/38
f 37/134/37 64/146/64 36/145/36
f 37/13/37 94/16/94 64/23/64
f 38/125/38 30/115/30 39/126/39
f 38/3/38 94/16/94 37/13/37
f 39/126/39 25/148/25 40/135/40
f 39/151/39 90/158/90 38/152/38
f 39/151/39 102/157/102 89/155/89
f 40/137/40 102/143/102 39/149/39
f 41/200/41 42/199/42 24/197/24
f 41/12/41 44/17/44 42/11/42
f 41/12/41 47/19/47 44/17/44
f 42/11/42 44/17/44 43/18/43
f 42/167/42 52/176/52 23/164/23
f 43/18/43 52/20/52 42/11/42
f 43/25/43 100/22/100 51/14/51
f 44/17/44 47/19/47 48/33/48
f 44/48/44 100/52/100 43/47/43
f 44/130/44 104/136/104 99/132/99
f 45/59/45 46/29/46 10/60/10
f 45/59/45 58/50/58 46/29/46
f 46/29/46 47/19/47 17/5/17
f 46/29/46 49/41/49 47/19/47
f 47/19/47 49/41/49 48/33/48
f 48/142/48 104/136/104 44/130/44
f 49/41/49 46/29/46 58/50/58
f 49/41/49 57/49/57 50/42/50
f 49/150/49 104/136/104 48/142/48
f 50/42/50 53/30/53 51/34/51
f 50/184/50 92/181/92 49/186/49
f 50/184/50 96/180/96 91/178/91
f 51/34/51 52/20/52 43/18/43
f 51/34/51 53/30/53 52/20/52
f 51/14/51 96/9/96 50/4/50
f 51/14/51 100/22/100 95/15/95
f 53/30/53 50/42/50 54/57/54
f 53/30/53 54/57/54 14/27/14
f 54/57/54 50/42/50 57/49/57
f 54/57/54 55/67/55 2/77/2
f 54/57/54 56/55/56 55/67/55
f 55/175/55 69/183/69 1/189/1
f 55/67/55 72/68/72 69/75/69
f 56/55/56 54/57/54 57/49/57
f 56/55/56 72/68/72 55/67/55
f 56/40/56 80/38/80 72/26/72
f 57/49/57 49/41/49 58/50/58
f 57/46/57 80/38/80 56/40/56
f 57/187/57 84/195/84 79/193/79
f 58/50/58 60/70/60 59/56/59
f 58/185/58 83/196/83 57/187/57
f 58/185/58 88/198/88 83/196/83
f 59/118/59 88/113/88 58/111/58
f 60/70/60 58/50/58 45/59/45
f 60/70/60 70/76/70 59/56/59
f 61/163/61 62/166/62 20/168/20
f 61/153/61 64/146/64 62/154/62
f 62/154/62 64/146/64 63/147/63
f 63/147/63 40/135/40 62/154/62
f 63/129/63 98/131/98 40/137/40
f 64/71/64 98/65/98 63/73/63
f 65/219/65 66/220/66 5/217/5
f 65/89/65 68/96/68 66/90/66
f 66/90/66 67/97/67 33/98/33
f 66/90/66 68/96/68 67/97/67
f 67/24/67 74/31/74 32/39/32
f 68/74/68 74/86/74 67/72/67
f 68/127/68 86/120/86 73/124/73
f 69/202/69 70/201/70 1/204/1
f 69/75/69 72/68/72 70/76/70
f 70/76/70 72/68/72 71/69/71
f 71/69/71 59/56/59 70/76/70
f 71/128/71 76/123/76 59/118/59
f 72/109/72 76/101/76 71/110/71
f 72/26/72 80/38/80 75/32/75
f 73/87/73 74/86/74 68/74/68
f 73/87/73 76/101/76 74/86/74
f 73/87/73 86/88/86 76/101/76
f 74/86/74 76/101/76 75/100/75
f 74/86/74 80/99/80 77/85/77
f 75/100/75 76/101/76 72/109/72
f 75/100/75 80/99/80 74/86/74
f 77/37/77 32/39/32 74/31/74
f 77/37/77 78/43/78 32/39/32
f 77/37/77 80/38/80 78/43/78
f 78/43/78 80/38/80 79/44/79
f 78/208/78 81/209/81 31/212/31
f 78/208/78 84/195/84 81/209/81
f 79/44/79 80/38/80 57/46/57
f 79/193/79 84/195/84 78/208/78
f 81/209/81 82/210/82 31/212/31
f 81/209/81 84/195/84 82/210/82
f 82/210/82 84/195/84 83/196/83
f 82/210/82 85/211/85 30/213/30
f 82/210/82 88/198/88 85/211/85
f 83/196/83 88/198/88 82/210/82
f 84/195/84 57/187/57 83/196/83
f 85/114/85 86/120/86 30/112/30
f 85/114/85 88/113/88 86/120/86
f 86/120/86 88/113/88 87/119/87
f 87/119/87 59/118/59 76/123/76
f 87/102/87 76/101/76 86/88/86
f 87/119/87 88/113/88 59/118/59
f 89/155/89 90/158/90 39/151/39
f 89/155/89 92/181/92 90/158/90
f 89/155/89 102/157/102 92/181/92
f 90/158/90 92/181/92 91/178/91
f 90/158/90 93/156/93 38/152/38
f 90/158/90 96/180/96 93/156/93
f 91/178/91 92/181/92 50/184/50
f 91/178/91 96/180/96 90/158/90
f 92/181/92 103/179/103 49/186/49
f 93/10/93 94/16/94 38/3/38
f 93/10/93 96/9/96 94/16/94
f 94/16/94 96/9/96 95/15/95
f 94/63/94 100/52/100 97/64/97
f 95/15/95 96/9/96 51/14/51
f 95/51/95 100/52/100 94/63/94
f 97/21/97 64/23/64 94/16/94
f 97/64/97 98/65/98 64/71/64
f 97/64/97 100/52/100 98/65/98
f 98/65/98 100/52/100 99/53/99
f 98/65/98 104/54/104 101/66/101
f 99/53/99 100/52/100 44/48/44
f 99/53/99 104/54/104 98/65/98
f 101/133/101 40/137/40 98/131/98
f 101/133/101 102/143/102 40/137/40
f 101/133/101 104/136/104 102/143/102
f 102/143/102 104/136/104 103/144/103
f 103/179/103 92/181/92 102/157/102
f 103/144/103 104/136/104 49/150/49
