# Exported from Wings 3D 0.99.03
mtllib Cursor.mtl
o cube2
#8 vertices, 6 faces
v -0.50000000 -0.50000000 0.50000000
v -0.50000000 0.50000000 0.50000000
v 0.50000000 0.50000000 0.50000000
v 0.50000000 -0.50000000 0.50000000
v -0.50000000 -0.50000000 -0.50000000
v -0.50000000 0.50000000 -0.50000000
v 0.50000000 0.50000000 -0.50000000
v 0.50000000 -0.50000000 -0.50000000
vt 0.0000000e+0 0.0000000e+0
vt 0.0000000e+0 1.00000000
vt 1.00000000 0.0000000e+0
vt 1.00000000 1.00000000
vn -0.57735027 -0.57735027 0.57735027
vn -0.57735027 0.57735027 0.57735027
vn 0.57735027 0.57735027 0.57735027
vn 0.57735027 -0.57735027 0.57735027
vn -0.57735027 -0.57735027 -0.57735027
vn -0.57735027 0.57735027 -0.57735027
vn 0.57735027 0.57735027 -0.57735027
vn 0.57735027 -0.57735027 -0.57735027
g cube2_cube2_auv2
usemtl cube2_auv2
f 1/1/1 4/3/4 3/4/3 2/2/2
f 1/3/1 5/4/5 8/2/8 4/1/4
f 2/4/2 6/2/6 5/1/5 1/3/1
f 3/3/3 7/4/7 6/2/6 2/1/2
f 4/1/4 8/3/8 7/4/7 3/2/3
f 6/4/6 7/2/7 8/1/8 5/3/5
