# Exported from Wings 3D 0.99.02
mtllib Floor.mtl
o cube1
#8 vertices, 12 faces
v 0.0000000e+0 0.0000000e+0 1.00000000
v 0.0000000e+0 1.0000000e-1 1.00000000
v 1.00000000 1.0000000e-1 1.00000000
v 1.00000000 0.0000000e+0 1.00000000
v 0.0000000e+0 0.0000000e+0 0.0000000e+0
v 0.0000000e+0 1.0000000e-1 0.0000000e+0
v 1.00000000 1.0000000e-1 0.0000000e+0
v 1.00000000 0.0000000e+0 0.0000000e+0
vt 0.0000000e+0 0.0000000e+0
vt 0.0000000e+0 8.8817842e-16
vt 0.0000000e+0 1.9984014e-15
vt 0.0000000e+0 2.2204460e-15
vt 0.0000000e+0 0.15000000
vt 0.0000000e+0 0.15000000
vt 0.0000000e+0 1.50000000
vt 1.1102230e-16 0.15000000
vt 1.6653345e-16 0.0000000e+0
vt 3.3306691e-16 0.0000000e+0
vt 1.50000000 1.6653345e-16
vt 1.50000000 1.50000000
vt 1.50000000 0.0000000e+0
vt 1.50000000 3.3306691e-16
vt 1.50000000 0.15000000
vt 1.50000000 0.15000000
vt 1.50000000 0.15000000
vt 1.50000000 0.15000000
vt 1.50000000 1.50000000
vt 1.50000000 8.3266727e-16
vn -0.57735027 -0.57735027 0.57735027
vn -0.57735027 0.57735027 0.57735027
vn 0.57735027 0.57735027 0.57735027
vn 0.57735027 -0.57735027 0.57735027
vn -0.57735027 -0.57735027 -0.57735027
vn -0.57735027 0.57735027 -0.57735027
vn 0.57735027 0.57735027 -0.57735027
vn 0.57735027 -0.57735027 -0.57735027
g cube1_cube1_auv
usemtl cube1_auv
f 1/10/1 4/20/4 2/5/2
f 1/11/1 5/12/5 4/1/4
f 2/5/2 4/20/4 3/18/3
f 2/17/2 5/3/5 1/13/1
f 2/9/2 7/19/7 6/7/6
f 3/14/3 7/19/7 2/9/2
f 4/1/4 5/12/5 8/7/8
f 4/4/4 7/15/7 3/6/3
f 5/13/5 7/8/7 8/2/8
f 6/6/6 5/3/5 2/17/2
f 6/16/6 7/8/7 5/13/5
f 8/13/8 7/15/7 4/4/4
