# Exported from Wings 3D 0.99.03
mtllib Fortif.mtl
o cube1
#76 vertices, 148 faces
v -0.50000000 -0.50000000 0.50000000
v -0.50000000 -0.40000000 0.50000000
v 0.50000000 -0.40000000 0.50000000
v 0.50000000 -0.50000000 0.50000000
v -0.50000000 -0.50000000 -0.50000000
v -0.50000000 -0.40000000 -0.50000000
v 0.50000000 -0.40000000 -0.50000000
v 0.50000000 -0.50000000 -0.50000000
v -0.25000000 -0.40000000 0.50000000
v -0.12500000 -0.40000000 0.50000000
v 0.12500000 -0.40000000 0.50000000
v 0.25000000 -0.40000000 0.50000000
v -0.50000000 -0.40000000 0.25000000
v -0.50000000 -0.40000000 0.12500000
v -0.50000000 -0.40000000 -0.12500000
v -0.50000000 -0.40000000 -0.25000000
v 0.50000000 -0.40000000 0.25000000
v 0.50000000 -0.40000000 0.12500000
v 0.50000000 -0.40000000 -0.12500000
v 0.50000000 -0.40000000 -0.25000000
v -0.25000000 -0.40000000 -0.50000000
v -0.12500000 -0.40000000 -0.50000000
v 0.12500000 -0.40000000 -0.50000000
v 0.25000000 -0.40000000 -0.50000000
v -0.25000000 -0.40000000 0.25000000
v -0.12500000 -0.40000000 0.25000000
v 0.12500000 -0.40000000 0.25000000
v 0.25000000 -0.40000000 0.25000000
v -0.25000000 -0.40000000 0.12500000
v -0.12500000 -0.40000000 0.12500000
v 0.12500000 -0.40000000 0.12500000
v 0.25000000 -0.40000000 0.12500000
v -0.25000000 -0.40000000 -0.12500000
v -0.12500000 -0.40000000 -0.12500000
v 0.12500000 -0.40000000 -0.12500000
v 0.25000000 -0.40000000 -0.12500000
v -0.25000000 -0.40000000 -0.25000000
v -0.12500000 -0.40000000 -0.25000000
v 0.12500000 -0.40000000 -0.25000000
v 0.25000000 -0.40000000 -0.25000000
v -0.25000000 0.50000000 0.50000000
v -0.25000000 0.50000000 0.25000000
v -0.50000000 0.50000000 0.25000000
v -0.50000000 0.50000000 0.50000000
v -0.25000000 0.50000000 0.12500000
v -0.25000000 0.50000000 -0.12500000
v -0.50000000 0.50000000 -0.12500000
v -0.50000000 0.50000000 0.12500000
v -0.25000000 0.50000000 -0.25000000
v -0.25000000 0.50000000 -0.50000000
v -0.50000000 0.50000000 -0.50000000
v -0.50000000 0.50000000 -0.25000000
v 0.12500000 0.50000000 0.50000000
v 0.12500000 0.50000000 0.25000000
v -0.12500000 0.50000000 0.25000000
v -0.12500000 0.50000000 0.50000000
v 0.50000000 0.50000000 0.50000000
v 0.50000000 0.50000000 0.25000000
v 0.25000000 0.50000000 0.25000000
v 0.25000000 0.50000000 0.50000000
v 0.12500000 0.50000000 0.12500000
v 0.12500000 0.50000000 -0.12500000
v -0.12500000 0.50000000 -0.12500000
v -0.12500000 0.50000000 0.12500000
v 0.50000000 0.50000000 0.12500000
v 0.50000000 0.50000000 -0.12500000
v 0.25000000 0.50000000 -0.12500000
v 0.25000000 0.50000000 0.12500000
v 0.12500000 0.50000000 -0.25000000
v 0.12500000 0.50000000 -0.50000000
v -0.12500000 0.50000000 -0.50000000
v -0.12500000 0.50000000 -0.25000000
v 0.50000000 0.50000000 -0.25000000
v 0.50000000 0.50000000 -0.50000000
v 0.25000000 0.50000000 -0.50000000
v 0.25000000 0.50000000 -0.25000000
vt 0.0000000e+0 0.0000000e+0
vt 0.0000000e+0 4.4408921e-16
vt 0.0000000e+0 1.4832580e-13
vt 0.0000000e+0 1.0000000e-1
vt 0.0000000e+0 0.10000000
vt 0.0000000e+0 0.25000000
vt 0.0000000e+0 0.25000000
vt 0.0000000e+0 0.90000000
vt 0.0000000e+0 1.00000000
vt 0.0000000e+0 1.00000000
vt 4.4408921e-16 0.0000000e+0
vt 4.4408921e-16 0.90000000
vt 6.6613381e-16 0.90000000
vt 8.8817842e-16 0.0000000e+0
vt 8.8817842e-16 0.90000000
vt 8.8817842e-16 0.90000000
vt 5.7731597e-15 0.62500000
vt 2.0650148e-14 0.10000000
vt 3.7081449e-14 0.75000000
vt 6.3504757e-14 1.5432100e-13
vt 6.4837025e-14 0.37500000
vt 8.0158102e-14 1.0000000e-1
vt 1.0635937e-13 1.00000000
vt 2.1982416e-13 1.00000000
vt 2.2781776e-13 0.0000000e+0
vt 3.1996628e-13 2.3758773e-14
vt 3.8813397e-13 1.00000000
vt 0.25000000 1.00000000
vt 0.25000000 0.0000000e+0
vt 0.25000000 0.0000000e+0
vt 0.25000000 0.25000000
vt 0.25000000 0.90000000
vt 0.25000000 0.0000000e+0
vt 0.25000000 0.90000000
vt 0.25000000 0.90000000
vt 0.25000000 0.0000000e+0
vt 0.25000000 0.90000000
vt 0.25000000 0.90000000
vt 0.25000000 1.00000000
vt 0.25000000 1.00000000
vt 0.25000000 0.25000000
vt 0.25000000 0.75000000
vt 0.25000000 0.62500000
vt 0.25000000 0.37500000
vt 0.25000000 0.0000000e+0
vt 0.25000000 1.00000000
vt 0.25000000 0.10000000
vt 0.25000000 0.10000000
vt 0.25000000 0.10000000
vt 0.25000000 1.00000000
vt 0.25000000 1.0000000e-1
vt 0.37500000 1.0000000e-1
vt 0.37500000 1.00000000
vt 0.37500000 0.10000000
vt 0.37500000 1.00000000
vt 0.37500000 1.0000000e-1
vt 0.37500000 0.75000000
vt 0.37500000 1.00000000
vt 0.37500000 0.25000000
vt 0.37500000 0.62500000
vt 0.37500000 0.37500000
vt 0.37500000 1.0000000e-1
vt 0.37500000 1.00000000
vt 0.37500000 2.0827784e-13
vt 0.37500000 1.00000000
vt 0.62500000 1.00000000
vt 0.62500000 0.37500000
vt 0.62500000 0.75000000
vt 0.62500000 0.10000000
vt 0.62500000 0.62500000
vt 0.62500000 1.00000000
vt 0.62500000 0.25000000
vt 0.62500000 1.00000000
vt 0.62500000 1.00000000
vt 0.62500000 9.0594199e-14
vt 0.62500000 0.10000000
vt 0.62500000 0.10000000
vt 0.62500000 1.00000000
vt 0.62500000 0.10000000
vt 0.75000000 1.0000000e-1
vt 0.75000000 1.00000000
vt 0.75000000 1.00000000
vt 0.75000000 0.10000000
vt 0.75000000 0.75000000
vt 0.75000000 1.00000000
vt 0.75000000 0.62500000
vt 0.75000000 0.37500000
vt 0.75000000 1.0000000e-1
vt 0.75000000 0.0000000e+0
vt 0.75000000 1.00000000
vt 0.75000000 0.25000000
vt 0.75000000 0.10000000
vt 0.75000000 1.00000000
vt 1.00000000 0.0000000e+0
vt 1.00000000 1.00000000
vt 1.00000000 1.00000000
vt 1.00000000 5.2846616e-14
vt 1.00000000 0.10000000
vt 1.00000000 1.0000000e-1
vt 1.00000000 0.0000000e+0
vt 1.00000000 1.00000000
vt 1.00000000 0.75000000
vt 1.00000000 0.37500000
vt 1.00000000 0.10000000
vt 1.00000000 0.25000000
vt 1.00000000 0.62500000
vt 1.00000000 0.0000000e+0
vt 1.00000000 1.00000000
vt 1.00000000 0.10000000
vt 1.00000000 0.0000000e+0
vt 1.00000000 1.00000000
vn -0.78446454 -0.19611614 0.58834841
vn -0.70710678 0.0000000e+0 0.70710678
vn 0.70710678 0.0000000e+0 0.70710678
vn 0.66666667 -0.33333333 0.66666667
vn -0.55708601 -0.37139068 -0.74278135
vn -0.70710678 0.0000000e+0 -0.70710678
vn 0.70710678 0.0000000e+0 -0.70710678
vn 0.68824720 -0.22941573 -0.68824720
vn 0.30151134 0.30151134 0.90453403
vn -0.34815531 0.34815531 0.87038828
vn 0.30151134 0.30151134 0.90453403
vn -0.40824829 0.40824829 0.81649658
vn -0.90453403 0.30151134 -0.30151134
vn -0.81649658 0.40824829 0.40824829
vn -0.94280904 0.23570226 -0.23570226
vn -0.81649658 0.40824829 0.40824829
vn 0.81649658 0.40824829 -0.40824829
vn 0.90453403 0.30151134 0.30151134
vn 0.87038828 0.34815531 -0.34815531
vn 0.90453403 0.30151134 0.30151134
vn 0.40824829 0.40824829 -0.81649658
vn -0.30151134 0.30151134 -0.90453403
vn 0.34815531 0.34815531 -0.87038828
vn -0.30151134 0.30151134 -0.90453403
vn 0.30151134 0.90453403 -0.30151134
vn -0.30151134 0.90453403 -0.30151134
vn 0.30151134 0.90453403 -0.30151134
vn -0.30151134 0.90453403 -0.30151134
vn 0.30151134 0.90453403 0.30151134
vn -0.30151134 0.90453403 0.30151134
vn 0.30151134 0.90453403 0.30151134
vn -0.30151134 0.90453403 0.30151134
vn 0.30151134 0.90453403 -0.30151134
vn -0.30151134 0.90453403 -0.30151134
vn 0.30151134 0.90453403 -0.30151134
vn -0.30151134 0.90453403 -0.30151134
vn 0.30151134 0.90453403 0.30151134
vn -0.30151134 0.90453403 0.30151134
vn 0.30151134 0.90453403 0.30151134
vn -0.30151134 0.90453403 0.30151134
vn 0.57735027 0.57735027 0.57735027
vn 0.57735027 0.57735027 -0.57735027
vn -0.57735027 0.57735027 -0.57735027
vn -0.57735027 0.57735027 0.57735027
vn 0.57735027 0.57735027 0.57735027
vn 0.57735027 0.57735027 -0.57735027
vn -0.57735027 0.57735027 -0.57735027
vn -0.57735027 0.57735027 0.57735027
vn 0.57735027 0.57735027 0.57735027
vn 0.57735027 0.57735027 -0.57735027
vn -0.57735027 0.57735027 -0.57735027
vn -0.57735027 0.57735027 0.57735027
vn 0.57735027 0.57735027 0.57735027
vn 0.57735027 0.57735027 -0.57735027
vn -0.57735027 0.57735027 -0.57735027
vn -0.57735027 0.57735027 0.57735027
vn 0.57735027 0.57735027 0.57735027
vn 0.57735027 0.57735027 -0.57735027
vn -0.57735027 0.57735027 -0.57735027
vn -0.57735027 0.57735027 0.57735027
vn 0.57735027 0.57735027 0.57735027
vn 0.57735027 0.57735027 -0.57735027
vn -0.57735027 0.57735027 -0.57735027
vn -0.57735027 0.57735027 0.57735027
vn 0.57735027 0.57735027 0.57735027
vn 0.57735027 0.57735027 -0.57735027
vn -0.57735027 0.57735027 -0.57735027
vn -0.57735027 0.57735027 0.57735027
vn 0.57735027 0.57735027 0.57735027
vn 0.57735027 0.57735027 -0.57735027
vn -0.57735027 0.57735027 -0.57735027
vn -0.57735027 0.57735027 0.57735027
vn 0.57735027 0.57735027 0.57735027
vn 0.57735027 0.57735027 -0.57735027
vn -0.57735027 0.57735027 -0.57735027
vn -0.57735027 0.57735027 0.57735027
g cube1_cube1_auv
usemtl cube1_auv
f 1/100/1 5/101/5 4/2/4
f 1/26/1 9/51/9 2/4/2
f 1/26/1 10/52/10 9/51/9
f 1/110/1 15/62/15 5/20/5
f 2/109/2 13/92/13 1/110/1
f 2/109/2 43/93/43 13/92/13
f 2/109/2 44/111/44 43/93/43
f 3/99/3 12/80/12 4/94/4
f 3/99/3 57/95/57 12/80/12
f 4/94/4 10/52/10 1/26/1
f 4/94/4 11/77/11 10/52/10
f 4/94/4 12/80/12 11/77/11
f 4/25/4 17/48/17 3/22/3
f 4/25/4 18/54/18 17/48/17
f 4/25/4 19/69/19 18/54/18
f 5/101/5 8/10/8 4/2/4
f 5/20/5 16/49/16 6/5/6
f 5/107/5 23/56/23 8/3/8
f 6/104/6 21/88/21 5/107/5
f 6/104/6 51/108/51 21/88/21
f 7/98/7 20/83/20 8/97/8
f 7/98/7 73/82/73 20/83/20
f 7/98/7 74/96/74 73/82/73
f 7/18/7 75/46/75 74/24/74
f 8/97/8 19/69/19 4/25/4
f 8/97/8 20/83/20 19/69/19
f 8/3/8 24/47/24 7/18/7
f 9/51/9 41/39/41 2/4/2
f 10/64/10 25/41/25 9/45/9
f 10/64/10 26/59/26 25/41/25
f 10/29/10 55/12/55 26/1/26
f 10/29/10 56/35/56 55/12/55
f 11/77/11 53/71/53 10/52/10
f 12/89/12 27/72/27 11/75/11
f 12/89/12 28/91/28 27/72/27
f 12/30/12 59/16/59 28/1/28
f 12/30/12 60/38/60 59/16/59
f 13/92/13 14/79/14 1/110/1
f 13/6/13 25/41/25 14/21/14
f 13/30/13 43/37/43 25/1/25
f 14/79/14 15/62/15 1/110/1
f 14/79/14 47/65/47 15/62/15
f 14/79/14 48/78/48 47/65/47
f 15/62/15 16/49/16 5/20/5
f 15/17/15 33/43/33 16/19/16
f 15/30/15 47/37/47 33/1/33
f 16/49/16 51/27/51 6/5/6
f 16/49/16 52/50/52 51/27/51
f 17/105/17 32/87/32 28/91/28
f 17/48/17 57/9/57 3/22/3
f 17/48/17 58/28/58 57/9/57
f 17/1/17 59/37/59 58/15/58
f 18/103/18 32/87/32 17/105/17
f 18/36/18 65/32/65 32/14/32
f 19/106/19 40/84/40 36/86/36
f 19/69/19 65/55/65 18/54/18
f 19/69/19 66/66/66 65/55/65
f 19/1/19 67/37/67 66/13/66
f 20/102/20 40/84/40 19/106/19
f 20/36/20 73/32/73 40/14/40
f 21/88/21 22/76/22 5/107/5
f 21/40/21 38/57/38 22/58/22
f 21/30/21 49/16/49 37/1/37
f 21/30/21 50/38/50 49/16/49
f 21/88/21 51/108/51 50/90/50
f 22/76/22 23/56/23 5/107/5
f 22/76/22 71/73/71 23/56/23
f 23/56/23 24/47/24 8/3/8
f 23/74/23 40/84/40 24/85/24
f 23/30/23 69/16/69 39/1/39
f 23/30/23 70/38/70 69/16/69
f 23/56/23 71/73/71 70/63/70
f 24/47/24 75/46/75 7/18/7
f 25/41/25 29/44/29 14/21/14
f 25/41/25 30/61/30 29/44/29
f 25/30/25 41/16/41 9/1/9
f 25/30/25 42/38/42 41/16/41
f 25/1/25 43/37/43 42/15/42
f 26/59/26 30/61/30 25/41/25
f 26/30/26 55/37/55 27/1/27
f 27/72/27 30/61/30 26/59/26
f 27/72/27 31/67/31 30/61/30
f 27/72/27 32/87/32 31/67/31
f 27/30/27 53/16/53 11/1/11
f 27/30/27 54/38/54 53/16/53
f 27/1/27 55/37/55 54/15/54
f 28/91/28 32/87/32 27/72/27
f 28/30/28 59/37/59 17/1/17
f 29/36/29 45/32/45 14/14/14
f 30/61/30 33/43/33 29/44/29
f 30/61/30 34/60/34 33/43/33
f 30/30/30 63/16/63 34/1/34
f 30/30/30 64/38/64 63/16/63
f 31/33/31 61/34/61 30/11/30
f 32/87/32 35/70/35 31/67/31
f 32/87/32 36/86/36 35/70/35
f 32/30/32 67/16/67 36/1/36
f 32/30/32 68/38/68 67/16/67
f 33/43/33 37/42/37 16/19/16
f 33/43/33 38/57/38 37/42/37
f 33/30/33 45/16/45 29/1/29
f 33/30/33 46/38/46 45/16/45
f 33/1/33 47/37/47 46/15/46
f 34/60/34 38/57/38 33/43/33
f 34/30/34 63/37/63 35/1/35
f 35/70/35 38/57/38 34/60/34
f 35/70/35 39/68/39 38/57/38
f 35/70/35 40/84/40 39/68/39
f 35/30/35 61/16/61 31/1/31
f 35/30/35 62/38/62 61/16/61
f 35/1/35 63/37/63 62/15/62
f 36/86/36 40/84/40 35/70/35
f 36/30/36 67/37/67 19/1/19
f 37/42/37 38/57/38 21/40/21
f 37/33/37 49/34/49 16/11/16
f 38/30/38 71/16/71 22/1/22
f 38/30/38 72/38/72 71/16/71
f 39/68/39 40/84/40 23/74/23
f 39/33/39 69/34/69 38/11/38
f 40/30/40 75/16/75 24/1/24
f 40/30/40 76/38/76 75/16/75
f 41/39/41 44/23/44 2/4/2
f 42/31/42 43/7/43 41/30/41
f 43/7/43 44/1/44 41/30/41
f 45/32/45 48/8/48 14/14/14
f 46/31/46 47/7/47 45/30/45
f 47/7/47 48/1/48 45/30/45
f 49/34/49 52/8/52 16/11/16
f 50/31/50 51/7/51 49/30/49
f 51/7/51 52/1/52 49/30/49
f 53/71/53 56/53/56 10/52/10
f 54/31/54 55/7/55 53/30/53
f 55/7/55 56/1/56 53/30/53
f 57/95/57 60/81/60 12/80/12
f 58/31/58 59/7/59 57/30/57
f 59/7/59 60/1/60 57/30/57
f 61/34/61 64/8/64 30/11/30
f 62/31/62 63/7/63 61/30/61
f 63/7/63 64/1/64 61/30/61
f 65/32/65 68/8/68 32/14/32
f 66/31/66 67/7/67 65/30/65
f 67/7/67 68/1/68 65/30/65
f 69/34/69 72/8/72 38/11/38
f 70/31/70 71/7/71 69/30/69
f 71/7/71 72/1/72 69/30/69
f 73/32/73 76/8/76 40/14/40
f 74/31/74 75/7/75 73/30/73
f 75/7/75 76/1/76 73/30/73
