# Exported from Wings 3D 0.99.02
mtllib SingleNorthRamp.mtl
o cube1
#8 vertices, 12 faces
v 0.0000000e+0 0.0000000e+0 1.00000000
v 0.0000000e+0 0.10000000 1.00000000
v 1.00000000 0.10000000 1.00000000
v 1.00000000 0.0000000e+0 1.00000000
v 0.0000000e+0 0.0000000e+0 0.0000000e+0
v 0.0000000e+0 1.10000000 0.0000000e+0
v 1.00000000 1.10000000 0.0000000e+0
v 1.00000000 0.0000000e+0 0.0000000e+0
vt 0.0000000e+0 0.0000000e+0
vt 0.0000000e+0 0.10000000
vt 0.0000000e+0 1.00000000
vt 0.0000000e+0 1.10000000
vt 0.0000000e+0 1.41421356
vt 1.00000000 0.0000000e+0
vt 1.00000000 0.10000000
vt 1.00000000 1.00000000
vt 1.00000000 1.10000000
vt 1.00000000 1.41421356
vn -0.57735027 -0.57735027 0.57735027
vn -0.47596315 0.33655677 0.81251992
vn 0.73450956 0.25968834 0.62694312
vn 0.33333333 -0.66666667 0.66666667
vn -0.57735027 -0.57735027 -0.57735027
vn -0.79410449 0.56151667 -0.23258782
vn 0.54691816 0.77345908 -0.32037724
vn 0.81649658 -0.40824829 -0.40824829
g cube1_cube1_auv
usemtl cube1_auv
f 1/1/1 4/6/4 2/2/2
f 1/6/1 5/8/5 4/1/4
f 2/2/2 4/6/4 3/7/3
f 2/7/2 5/1/5 1/6/1
f 2/7/2 6/4/6 5/1/5
f 2/1/2 7/10/7 6/5/6
f 3/6/3 7/10/7 2/1/2
f 3/2/3 8/6/8 7/9/7
f 4/1/4 8/6/8 3/2/3
f 5/8/5 8/3/8 4/1/4
f 6/9/6 7/4/7 5/6/5
f 7/4/7 8/1/8 5/6/5
