# Exported from Wings 3D 0.99.03
mtllib Stairs.mtl
o cube1
#28 vertices, 56 faces
v -0.50000000 -0.50000000 0.50000000
v -0.50000000 -0.40000000 0.50000000
v 0.50000000 -0.40000000 0.50000000
v 0.50000000 -0.50000000 0.50000000
v -0.50000000 -0.50000000 -0.50000000
v -0.50000000 -0.40000000 -0.50000000
v 0.50000000 -0.40000000 -0.50000000
v 0.50000000 -0.50000000 -0.50000000
v -0.33333353 -0.40000000 0.40000001
v 0.33333353 -0.40000000 -0.40000013
v 0.33333313 -0.40000000 0.40000001
v -0.33333313 -0.40000000 -0.40000013
v -0.33333353 -0.50000000 0.40000001
v 0.33333353 -0.50000000 -0.40000013
v -0.33333313 -0.50000000 -0.40000013
v 0.33333313 -0.50000000 0.40000001
v -2.0000000e-7 -0.40000000 0.40000001
v 2.0000000e-7 -0.40000000 -0.40000013
v 2.0000000e-7 -0.50000000 -0.40000013
v -2.0000000e-7 -0.50000000 0.40000001
v -5.3333333e-7 0.50000000 0.39999998
v -5.3333333e-7 0.60000000 0.39999998
v -0.33333387 0.60000000 0.39999998
v -0.33333387 0.50000000 0.39999998
v 5.3333333e-7 0.60000000 -0.39999980
v 0.33333387 0.60000000 -0.39999980
v 0.33333387 0.50000000 -0.39999980
v 5.3333333e-7 0.50000000 -0.39999980
vt 6.0868111e-3 6.0869244e-3
vt 6.0869711e-3 6.0870017e-3
vt 6.0869711e-3 0.99391284
vt 6.0869754e-3 0.54939130
vt 6.0869754e-3 0.45060870
vt 6.0869754e-3 0.45060870
vt 6.0869754e-3 0.45060870
vt 6.0869754e-3 0.54939130
vt 6.0869754e-3 0.45060870
vt 6.0869754e-3 0.54939130
vt 6.0871581e-3 0.99391319
vt 0.10486951 0.45060870
vt 0.10486951 0.45060870
vt 0.10486951 0.54939130
vt 0.10486951 0.54939130
vt 0.10486952 -4.3304327e-2
vt 0.10486952 5.5478278e-2
vt 0.10486952 1.04330433
vt 0.10486952 0.94452172
vt 0.10486967 0.94452172
vt 0.10486967 1.04330433
vt 0.10486967 -4.3304327e-2
vt 0.10486967 5.5478278e-2
vt 0.17072438 0.10486955
vt 0.17072464 0.89513063
vt 0.17072470 0.10486951
vt 0.17072490 0.89513044
vt 0.33536196 -0.13251733
vt 0.33536196 -0.13251723
vt 0.33536205 1.03958045
vt 0.33536205 1.03958038
vt 0.33536205 0.94079785
vt 0.33536205 0.94079778
vt 0.33536233 0.45060870
vt 0.33536233 0.54939130
vt 0.33536233 0.45060870
vt 0.33536269 1.13251723
vt 0.33536269 1.13251733
vt 0.33536278 -0.32423669
vt 0.33536278 -0.32423681
vt 0.49999979 0.10486952
vt 0.49999993 0.89513049
vt 0.50000012 0.89513051
vt 0.50000015 0.10486951
vt 0.66463731 -0.13251733
vt 0.66463731 -0.13251723
vt 0.66463740 1.03958045
vt 0.66463740 1.03958038
vt 0.66463740 0.94079785
vt 0.66463740 0.94079778
vt 0.66463767 0.54939130
vt 0.66463767 0.45060870
vt 0.66463767 0.54939130
vt 0.66463804 1.13251723
vt 0.66463804 1.13251733
vt 0.66463813 -0.32423669
vt 0.66463813 -0.32423680
vt 0.82927518 0.89513034
vt 0.82927527 0.10486951
vt 0.82927541 0.89513059
vt 0.82927556 0.10486950
vt 0.89513033 1.04330433
vt 0.89513033 0.94452172
vt 0.89513033 -4.3304327e-2
vt 0.89513033 5.5478278e-2
vt 0.89513048 -4.3304327e-2
vt 0.89513048 5.5478278e-2
vt 0.89513048 1.04330433
vt 0.89513048 0.94452172
vt 0.89513049 0.45060870
vt 0.89513049 0.45060870
vt 0.89513049 0.54939130
vt 0.89513049 0.54939130
vt 0.99391294 0.99391313
vt 0.99391299 6.0869244e-3
vt 0.99391302 0.45060870
vt 0.99391302 0.45060870
vt 0.99391302 0.54939130
vt 0.99391302 0.54939130
vt 0.99391302 0.45060870
vt 0.99391302 0.54939130
vt 0.99391302 0.45060870
vt 0.99391302 0.54939130
vt 0.99391308 0.99391275
vt 0.99391310 6.0868782e-3
vn -0.30151134 -0.90453403 0.30151134
vn -0.40824829 0.81649658 0.40824829
vn 0.23570226 0.94280904 0.23570226
vn 0.48507125 -0.72760688 0.48507125
vn -0.40824829 -0.81649658 -0.40824829
vn -0.30151134 0.90453403 -0.30151134
vn 0.48507125 0.72760688 -0.48507125
vn 0.23570226 -0.94280904 -0.23570226
vn 0.40824832 0.81649665 -0.40824812
vn -0.48507131 0.72760696 0.48507106
vn -1.0767502e-13 0.95848102 0.28515634
vn 1.3031475e-13 0.93861700 -0.34496107
vn 0.48507131 -0.72760696 -0.48507106
vn -0.40824832 -0.81649665 0.40824812
vn 1.0772252e-13 -0.95848112 0.28515600
vn -1.3036802e-13 -0.93861709 -0.34496081
vn -0.42400496 0.90088121 -9.2913071e-2
vn 0.26549930 0.96235403 5.8179433e-2
vn 0.33930826 -0.72092660 0.60426380
vn -0.24035468 -0.87121240 -0.42804039
vn 0.46820355 -0.29248446 0.83380950
vn 0.83383643 0.52089353 0.18272037
vn -0.83383666 0.52089368 0.18271889
vn -0.46820388 -0.29248467 0.83380924
vn -0.83383650 0.52089346 -0.18272029
vn 0.83383673 0.52089360 -0.18271881
vn 0.46820387 -0.29248460 -0.83380927
vn -0.46820353 -0.29248439 -0.83380953
g cube1_cube1_auv
usemtl cube1_auv
f 1/9/1 4/82/4 2/4/2
f 1/75/1 20/44/20 4/1/4
f 2/4/2 4/82/4 3/83/3
f 2/78/2 5/6/5 1/76/1
f 2/2/2 12/27/12 6/3/6
f 2/2/2 17/41/17 9/24/9
f 3/85/3 10/60/10 11/59/11
f 3/85/3 17/41/17 2/2/2
f 4/7/4 7/81/7 3/8/3
f 4/1/4 16/26/16 8/11/8
f 4/1/4 20/44/20 16/26/16
f 5/77/5 7/10/7 8/5/8
f 5/84/5 13/61/13 1/75/1
f 5/84/5 19/42/19 15/58/15
f 6/8/6 5/6/5 2/78/2
f 6/79/6 7/10/7 5/77/5
f 6/3/6 18/43/18 7/74/7
f 7/74/7 10/60/10 3/85/3
f 7/74/7 18/43/18 10/60/10
f 8/80/8 7/81/7 4/7/4
f 8/11/8 16/26/16 14/25/14
f 8/11/8 19/42/19 5/84/5
f 9/24/9 12/27/12 2/2/2
f 9/14/9 13/12/13 12/73/12
f 9/53/9 17/35/17 13/52/13
f 10/15/10 16/70/16 11/72/11
f 11/59/11 17/41/17 3/85/3
f 11/46/11 26/54/26 17/29/17
f 12/27/12 18/43/18 6/3/6
f 12/45/12 22/38/22 18/28/18
f 13/52/13 17/35/17 20/34/20
f 13/61/13 20/44/20 1/75/1
f 14/52/14 10/51/10 19/36/19
f 14/25/14 19/42/19 8/11/8
f 15/71/15 12/73/12 13/12/13
f 15/58/15 13/61/13 5/84/5
f 15/16/15 24/69/24 12/17/12
f 16/70/16 10/15/10 14/13/14
f 16/22/16 26/62/26 11/23/11
f 17/65/17 28/20/28 20/64/20
f 18/35/18 19/36/19 10/51/10
f 18/67/18 22/18/22 19/66/19
f 19/57/19 24/32/24 15/40/15
f 20/56/20 28/50/28 16/39/16
f 21/19/21 19/66/19 22/18/22
f 21/49/21 24/32/24 19/57/19
f 22/38/22 12/45/12 23/55/23
f 22/47/22 24/32/24 21/49/21
f 23/68/23 12/17/12 24/69/24
f 23/30/23 24/32/24 22/47/22
f 25/37/25 17/29/17 26/54/26
f 25/21/25 28/20/28 17/65/17
f 26/62/26 16/22/16 27/63/27
f 26/31/26 28/50/28 25/48/25
f 27/33/27 16/39/16 28/50/28
f 27/33/27 28/50/28 26/31/26
