# Exported from Wings 3D 0.99.03
mtllib Stair_Down.mtl
o cube1
#56 vertices, 124 faces
v -0.50000000 -0.50000000 0.50000000
v -0.50000000 -0.40000000 0.50000000
v 0.50000000 -0.40000000 0.50000000
v 0.50000000 -0.50000000 0.50000000
v -0.50000000 -0.50000000 -0.50000000
v -0.50000000 -0.40000000 -0.50000000
v 0.50000000 -0.40000000 -0.50000000
v 0.50000000 -0.50000000 -0.50000000
v -0.33333353 -0.40000000 0.40000001
v 0.33333353 -0.40000000 -0.40000013
v 0.33333313 -0.40000000 0.40000001
v -0.33333313 -0.40000000 -0.40000013
v -0.33333353 -0.50000000 0.40000001
v 0.33333353 -0.50000000 -0.40000013
v -0.33333313 -0.50000000 -0.40000013
v 0.33333313 -0.50000000 0.40000001
v -2.0000000e-7 -0.40000000 0.40000001
v 2.0000000e-7 -0.40000000 -0.40000013
v 2.0000000e-7 -0.50000000 -0.40000013
v -2.0000000e-7 -0.50000000 0.40000001
v -5.3333333e-7 0.50000000 0.39999998
v -5.3333333e-7 0.60000000 0.39999998
v -0.33333387 0.60000000 0.39999998
v -0.33333387 0.50000000 0.39999998
v 5.3333333e-7 0.60000000 -0.39999980
v 0.33333387 0.60000000 -0.39999980
v 0.33333387 0.50000000 -0.39999980
v 5.3333333e-7 0.50000000 -0.39999980
v 5.3333333e-7 0.50000000 -0.49999980
v 5.3333333e-7 0.60000000 -0.49999980
v 0.33333387 0.60000000 -0.49999980
v 0.33333387 0.50000000 -0.49999980
v -5.3333333e-7 0.50000000 0.49999998
v -5.3333333e-7 0.60000000 0.49999998
v -0.33333387 0.60000000 0.49999998
v -0.33333387 0.50000000 0.49999998
v 0.50000000 0.60000000 -0.39999980
v 0.50000000 0.50000000 -0.39999980
v 0.50000000 0.50000000 -0.49999980
v 0.50000000 0.60000000 -0.49999980
v 0.50000000 0.60000000 0.49999998
v 0.50000000 0.50000000 0.49999998
v 0.50000000 0.50000000 0.39999998
v 0.50000000 0.60000000 0.39999998
v -0.50000000 0.50000000 -0.39999980
v -0.50000000 0.60000000 -0.39999980
v -0.50000000 0.60000000 -0.49999980
v -0.50000000 0.50000000 -0.49999980
v -0.50000000 0.60000000 0.39999998
v -0.50000000 0.50000000 0.39999998
v -0.50000000 0.50000000 0.49999998
v -0.50000000 0.60000000 0.49999998
v 0.33333316 0.50000000 0.39999998
v 0.33333316 0.60000000 0.39999998
v -0.33333316 0.50000000 -0.39999980
v -0.33333316 0.60000000 -0.39999980
vt 6.0868111e-3 6.0869244e-3
vt 6.0869711e-3 6.0870017e-3
vt 6.0869711e-3 0.99391284
vt 6.0869754e-3 0.54939130
vt 6.0869754e-3 0.45060870
vt 6.0869754e-3 0.45060870
vt 6.0869754e-3 0.45060870
vt 6.0869754e-3 0.54939130
vt 6.0869754e-3 0.45060870
vt 6.0869754e-3 0.54939130
vt 6.0871581e-3 0.99391319
vt 0.10486951 0.45060870
vt 0.10486951 0.45060870
vt 0.10486951 0.54939130
vt 0.10486951 0.54939130
vt 0.10486952 -4.3304327e-2
vt 0.10486952 5.5478278e-2
vt 0.10486952 1.04330433
vt 0.10486952 0.94452172
vt 0.10486967 0.94452172
vt 0.10486967 1.04330433
vt 0.10486967 -4.3304327e-2
vt 0.10486967 5.5478278e-2
vt 0.17072438 0.10486955
vt 0.17072464 0.89513063
vt 0.17072470 0.10486951
vt 0.17072490 0.89513044
vt 0.18170058 1.07304199
vt 0.18170068 1.07304196
vt 0.29145882 0.94328043
vt 0.29145891 0.94328041
vt 0.33536196 -0.13251733
vt 0.33536196 -0.13251723
vt 0.33536205 1.03958045
vt 0.33536205 1.03958038
vt 0.33536205 0.94079785
vt 0.33536205 0.94079778
vt 0.33536233 0.45060870
vt 0.33536233 0.54939130
vt 0.33536233 0.45060870
vt 0.33536269 1.13251723
vt 0.33536269 1.13251733
vt 0.33536278 -0.32423669
vt 0.33536278 -0.32423681
vt 0.49999979 0.10486952
vt 0.49999993 0.89513049
vt 0.50000012 0.89513051
vt 0.50000015 0.10486951
vt 0.66463731 -0.13251733
vt 0.66463731 -0.13251723
vt 0.66463740 1.03958045
vt 0.66463740 1.03958038
vt 0.66463740 0.94079785
vt 0.66463740 0.94079778
vt 0.66463767 0.54939130
vt 0.66463767 0.45060870
vt 0.66463767 0.54939130
vt 0.66463804 1.13251723
vt 0.66463804 1.13251733
vt 0.66463813 -0.32423669
vt 0.66463813 -0.32423680
vt 0.82927518 0.89513034
vt 0.82927527 0.10486951
vt 0.82927541 0.89513059
vt 0.82927556 0.10486950
vt 0.89513033 1.04330433
vt 0.89513033 0.94452172
vt 0.89513033 -4.3304327e-2
vt 0.89513033 5.5478278e-2
vt 0.89513048 -4.3304327e-2
vt 0.89513048 5.5478278e-2
vt 0.89513048 1.04330433
vt 0.89513048 0.94452172
vt 0.89513049 0.45060870
vt 0.89513049 0.45060870
vt 0.89513049 0.54939130
vt 0.89513049 0.54939130
vt 0.99391294 0.99391313
vt 0.99391299 6.0869244e-3
vt 0.99391302 0.45060870
vt 0.99391302 0.45060870
vt 0.99391302 0.54939130
vt 0.99391302 0.54939130
vt 0.99391302 0.45060870
vt 0.99391302 0.54939130
vt 0.99391302 0.45060870
vt 0.99391302 0.54939130
vt 0.99391308 0.99391275
vt 0.99391310 6.0868782e-3
vn -0.40824829 -0.81649658 0.40824829
vn -0.40824829 0.81649658 0.40824829
vn 0.23570226 0.94280904 0.23570226
vn 0.40824829 -0.81649658 0.40824829
vn -0.40824829 -0.81649658 -0.40824829
vn -0.40824829 0.81649658 -0.40824829
vn 0.40824829 0.81649658 -0.40824829
vn 0.23570226 -0.94280904 -0.23570226
vn 0.40824832 0.81649665 -0.40824812
vn -0.48507131 0.72760696 0.48507106
vn 0.34302175 0.90032746 0.26785547
vn 1.0772251e-13 0.95848103 -0.28515628
vn 0.40824832 -0.81649665 -0.40824812
vn -0.40824832 -0.81649665 0.40824812
vn 1.0772252e-13 -0.95848112 0.28515600
vn -0.21568391 -0.91652502 -0.33684172
vn -0.42400496 0.90088121 -9.2913071e-2
vn 0.35495282 0.93164292 7.7781574e-2
vn 0.33930826 -0.72092660 0.60426380
vn -0.30068531 -0.78920722 -0.53548139
vn 0.32659335 -0.85720797 -0.39815986
vn 0.37384936 0.79431591 -0.47885163
vn -0.21111982 0.97636478 4.6262752e-2
vn -0.19779967 -0.91476317 0.35225507
vn -0.24035473 0.87121257 0.42804003
vn 0.18610765 0.97695165 0.10454387
vn 0.21551701 -0.92938424 -0.29966208
vn -0.52074493 -0.84605166 0.11411094
vn 0.0000000e+0 -0.70710678 -0.70710678
vn 0.0000000e+0 0.83205029 -0.55470020
vn 0.0000000e+0 0.70710678 -0.70710678
vn 0.0000000e+0 -0.70710678 -0.70710678
vn 0.0000000e+0 -0.70710678 0.70710678
vn 0.0000000e+0 0.83205029 0.55470020
vn 0.0000000e+0 0.70710678 0.70710678
vn 0.0000000e+0 -0.70710678 0.70710678
vn 0.70710678 0.70710678 0.0000000e+0
vn 0.70710678 -0.70710678 0.0000000e+0
vn 0.57735027 -0.57735027 -0.57735027
vn 0.57735027 0.57735027 -0.57735027
vn 0.57735027 0.57735027 0.57735027
vn 0.40824829 -0.81649658 0.40824829
vn 0.80000000 -0.60000000 4.1633330e-17
vn 0.70710678 0.70710678 0.0000000e+0
vn -0.80000000 -0.60000000 4.1633508e-17
vn -0.70710678 0.70710678 0.0000000e+0
vn -0.57735027 0.57735027 -0.57735027
vn -0.40824829 -0.81649658 -0.40824829
vn -0.70710678 0.70710678 0.0000000e+0
vn -0.70710678 -0.70710678 7.3598340e-17
vn -0.57735027 -0.57735027 0.57735027
vn -0.57735027 0.57735027 0.57735027
vn 0.0000000e+0 -1.00000000 1.0685895e-16
vn 0.0000000e+0 1.00000000 2.9936373e-16
vn 2.3111153e-33 -1.00000000 -4.4408874e-16
vn 0.0000000e+0 1.00000000 2.9936339e-16
g cube1_cube1_auv
usemtl cube1_auv
f 1/9/1 4/86/4 2/4/2
f 1/79/1 13/65/13 4/1/4
f 2/4/2 4/86/4 3/87/3
f 2/82/2 5/6/5 1/80/1
f 2/2/2 12/27/12 6/3/6
f 2/2/2 17/45/17 9/24/9
f 3/89/3 10/64/10 11/63/11
f 3/89/3 17/45/17 2/2/2
f 4/7/4 7/85/7 3/8/3
f 4/1/4 16/26/16 8/11/8
f 4/1/4 20/48/20 16/26/16
f 5/81/5 7/10/7 8/5/8
f 5/88/5 13/65/13 1/79/1
f 5/88/5 19/46/19 15/62/15
f 6/8/6 5/6/5 2/82/2
f 6/83/6 7/10/7 5/81/5
f 6/3/6 12/27/12 7/78/7
f 7/78/7 10/64/10 3/89/3
f 7/78/7 18/47/18 10/64/10
f 8/84/8 7/85/7 4/7/4
f 8/11/8 16/26/16 14/25/14
f 8/11/8 19/46/19 5/88/5
f 9/24/9 12/27/12 2/2/2
f 9/14/9 13/12/13 12/77/12
f 9/57/9 17/39/17 13/56/13
f 10/15/10 16/74/16 11/76/11
f 11/63/11 17/45/17 3/89/3
f 11/50/11 26/58/26 17/33/17
f 12/49/12 22/42/22 18/32/18
f 13/56/13 17/39/17 20/38/20
f 14/56/14 10/55/10 19/40/19
f 14/25/14 19/46/19 8/11/8
f 15/75/15 12/77/12 13/12/13
f 15/62/15 13/65/13 5/88/5
f 15/16/15 24/73/24 12/17/12
f 16/74/16 10/15/10 14/13/14
f 16/22/16 27/67/27 11/23/11
f 17/69/17 28/20/28 20/68/20
f 18/47/18 7/78/7 12/27/12
f 18/39/18 19/40/19 10/55/10
f 18/71/18 22/18/22 19/70/19
f 19/61/19 24/36/24 15/44/15
f 20/48/20 4/1/4 13/65/13
f 20/60/20 28/54/28 16/43/16
f 21/19/21 19/70/19 22/18/22
f 21/53/21 24/36/24 19/61/19
f 21/53/21 33/53/33 24/36/24
f 21/53/21 53/30/53 33/53/33
f 21/19/21 54/18/54 53/19/53
f 22/42/22 12/49/12 23/59/23
f 22/18/22 54/18/54 21/19/21
f 23/72/23 12/17/12 24/73/24
f 23/59/23 35/34/35 22/42/22
f 23/59/23 49/72/49 35/34/35
f 23/59/23 54/28/54 56/29/56
f 23/59/23 56/29/56 49/72/49
f 24/73/24 54/18/54 23/72/23
f 25/41/25 17/33/17 26/58/26
f 25/21/25 28/20/28 17/69/17
f 25/21/25 56/21/56 28/20/28
f 26/66/26 11/23/11 27/67/27
f 26/58/26 31/35/31 25/41/25
f 26/58/26 37/66/37 31/35/31
f 26/58/26 54/28/54 37/66/37
f 26/58/26 56/29/56 54/28/54
f 27/37/27 16/43/16 28/54/28
f 27/67/27 56/21/56 26/66/26
f 28/54/28 29/54/29 27/37/27
f 28/54/28 55/31/55 29/54/29
f 28/20/28 56/21/56 55/20/55
f 29/54/29 47/52/47 30/52/30
f 29/54/29 55/31/55 48/54/48
f 30/52/30 25/41/25 31/35/31
f 30/52/30 31/35/31 29/54/29
f 30/52/30 56/29/56 25/41/25
f 31/35/31 39/37/39 32/37/32
f 32/37/32 27/37/27 29/54/29
f 32/37/32 29/54/29 31/35/31
f 32/37/32 39/37/39 27/37/27
f 33/53/33 41/51/41 34/51/34
f 33/53/33 53/30/53 42/53/42
f 34/51/34 22/42/22 35/34/35
f 34/51/34 35/34/35 33/53/33
f 34/51/34 54/28/54 22/42/22
f 35/34/35 51/36/51 36/36/36
f 36/36/36 24/36/24 33/53/33
f 36/36/36 33/53/33 35/34/35
f 36/36/36 51/36/51 24/36/24
f 37/66/37 43/19/43 38/67/38
f 38/67/38 27/37/27 39/37/39
f 38/67/38 39/37/39 37/66/37
f 38/67/38 43/19/43 27/37/27
f 39/37/39 31/35/31 40/35/40
f 40/35/40 31/35/31 37/66/37
f 40/35/40 37/66/37 39/37/39
f 41/51/41 33/53/33 42/53/42
f 41/51/41 54/28/54 34/51/34
f 42/53/42 43/19/43 41/51/41
f 42/53/42 53/30/53 43/19/43
f 43/19/43 37/66/37 44/18/44
f 44/18/44 37/66/37 54/28/54
f 44/18/44 41/51/41 43/19/43
f 44/18/44 54/28/54 41/51/41
f 45/20/45 49/72/49 46/21/46
f 46/21/46 47/52/47 45/20/45
f 46/21/46 49/72/49 56/29/56
f 46/21/46 56/29/56 47/52/47
f 47/52/47 29/54/29 48/54/48
f 47/52/47 56/29/56 30/52/30
f 48/54/48 45/20/45 47/52/47
f 48/54/48 55/31/55 45/20/45
f 49/72/49 45/20/45 50/73/50
f 50/73/50 24/36/24 51/36/51
f 50/73/50 45/20/45 24/36/24
f 50/73/50 51/36/51 49/72/49
f 51/36/51 35/34/35 52/34/52
f 52/34/52 35/34/35 49/72/49
f 52/34/52 49/72/49 51/36/51
f 53/30/53 24/36/24 27/37/27
f 53/30/53 27/37/27 43/19/43
f 54/18/54 24/73/24 53/19/53
f 55/31/55 24/36/24 45/20/45
f 55/31/55 27/37/27 24/36/24
f 56/21/56 27/67/27 55/20/55
