# Exported from Wings 3D 0.99.03
mtllib Stair_Up.mtl
o cube1
#28 vertices, 60 faces
v -0.50000000 -0.50000000 0.50000000
v -0.50000000 -0.40000000 0.50000000
v 0.50000000 -0.40000000 0.50000000
v 0.50000000 -0.50000000 0.50000000
v -0.50000000 -0.50000000 -0.50000000
v -0.50000000 -0.40000000 -0.50000000
v 0.50000000 -0.40000000 -0.50000000
v 0.50000000 -0.50000000 -0.50000000
v -0.33333353 -0.40000000 0.40000001
v 0.33333353 -0.40000000 -0.40000013
v 0.33333313 -0.40000000 0.40000001
v -0.33333313 -0.40000000 -0.40000013
v -0.33333353 -0.50000000 0.40000001
v 0.33333353 -0.50000000 -0.40000013
v -0.33333313 -0.50000000 -0.40000013
v 0.33333313 -0.50000000 0.40000001
v -2.0000000e-7 -0.40000000 0.40000001
v 2.0000000e-7 -0.40000000 -0.40000013
v 2.0000000e-7 -0.50000000 -0.40000013
v -2.0000000e-7 -0.50000000 0.40000001
v -5.3333333e-7 0.50000000 0.39999998
v -5.3333333e-7 0.60000000 0.39999998
v -0.33333387 0.60000000 0.39999998
v -0.33333387 0.50000000 0.39999998
v 5.3333333e-7 0.60000000 -0.39999980
v 0.33333387 0.60000000 -0.39999980
v 0.33333387 0.50000000 -0.39999980
v 5.3333333e-7 0.50000000 -0.39999980
vt 6.0868111e-3 6.0869244e-3
vt 6.0869711e-3 6.0870017e-3
vt 6.0869711e-3 0.99391284
vt 6.0869754e-3 0.45060870
vt 6.0869754e-3 0.54939130
vt 6.0871581e-3 0.99391319
vt 0.10486952 -4.3304327e-2
vt 0.10486952 5.5478278e-2
vt 0.10486952 0.94452172
vt 0.10486952 1.04330433
vt 0.10486967 -4.3304327e-2
vt 0.10486967 5.5478278e-2
vt 0.10486967 0.94452172
vt 0.10486967 1.04330433
vt 0.17072438 0.10486955
vt 0.17072464 0.89513063
vt 0.17072470 0.10486951
vt 0.17072490 0.89513044
vt 0.33536196 -0.13251733
vt 0.33536196 -0.13251723
vt 0.33536205 0.94079778
vt 0.33536205 0.94079785
vt 0.33536205 1.03958038
vt 0.33536205 1.03958045
vt 0.33536233 0.45060870
vt 0.33536233 0.54939130
vt 0.33536269 1.13251723
vt 0.33536269 1.13251733
vt 0.33536278 -0.32423681
vt 0.33536278 -0.32423669
vt 0.49999979 0.10486952
vt 0.49999993 0.89513049
vt 0.50000012 0.89513051
vt 0.50000015 0.10486951
vt 0.66463731 -0.13251733
vt 0.66463731 -0.13251723
vt 0.66463740 0.94079778
vt 0.66463740 0.94079785
vt 0.66463740 1.03958038
vt 0.66463740 1.03958045
vt 0.66463767 0.45060870
vt 0.66463767 0.54939130
vt 0.66463804 1.13251723
vt 0.66463804 1.13251733
vt 0.66463813 -0.32423680
vt 0.66463813 -0.32423669
vt 0.82927518 0.89513034
vt 0.82927527 0.10486951
vt 0.82927541 0.89513059
vt 0.82927556 0.10486950
vt 0.89513033 -4.3304327e-2
vt 0.89513033 5.5478278e-2
vt 0.89513033 0.94452172
vt 0.89513033 1.04330433
vt 0.89513048 -4.3304327e-2
vt 0.89513048 5.5478278e-2
vt 0.89513048 0.94452172
vt 0.89513048 1.04330433
vt 0.99391294 0.99391313
vt 0.99391299 6.0869244e-3
vt 0.99391302 0.45060870
vt 0.99391302 0.54939130
vt 0.99391308 0.99391275
vt 0.99391310 6.0868782e-3
vn -0.43643578 -0.87287156 0.21821789
vn -0.21821789 0.87287156 0.43643578
vn 0.23570226 0.94280904 0.23570226
vn 0.48507125 -0.72760688 0.48507125
vn -0.21821789 -0.87287156 -0.43643578
vn -0.66666667 0.66666667 -0.33333333
vn 0.40824829 0.81649658 -0.40824829
vn 0.30151134 -0.90453403 -0.30151134
vn 0.0000000e+0 1.00000000 -2.9605947e-16
vn 0.0000000e+0 0.97014250 -0.24253563
vn 0.34751854 0.80358362 0.48320207
vn -0.27989667 0.92711505 -0.24922988
vn 0.0000000e+0 -1.00000000 0.0000000e+0
vn 0.0000000e+0 -0.98058068 0.19611614
vn -0.18650689 -0.97904744 -8.1739142e-2
vn 0.18610766 -0.97695168 -0.10454353
vn -0.42400496 0.90088121 -9.2913071e-2
vn 0.52074484 0.84605158 0.11411194
vn 0.30068530 -0.78920725 0.53548134
vn -0.24035468 -0.87121240 -0.42804039
vn 0.46820354 -0.29248446 0.83380950
vn 0.83383643 0.52089353 0.18272037
vn -0.60268867 0.75299331 0.26413526
vn -0.72730971 -0.22717341 0.64762090
vn -0.83383650 0.52089346 -0.18272029
vn 0.60268877 0.75299327 -0.26413517
vn 0.72730970 -0.22717335 -0.64762093
vn -0.46820353 -0.29248439 -0.83380953
g cube1_cube1_auv2
usemtl cube1_auv2
f 1/4/1 4/61/4 2/5/2
f 1/61/1 6/5/6 5/4/5
f 1/60/1 15/47/15 13/50/13
f 1/60/1 20/34/20 4/1/4
f 2/5/2 4/61/4 3/62/3
f 2/62/2 6/5/6 1/61/1
f 2/2/2 12/18/12 6/3/6
f 2/2/2 17/31/17 9/15/9
f 3/64/3 17/31/17 2/2/2
f 4/4/4 7/62/7 3/5/3
f 4/4/4 8/61/8 7/62/7
f 4/1/4 16/17/16 8/6/8
f 4/1/4 20/34/20 16/17/16
f 5/63/5 15/47/15 1/60/1
f 5/63/5 19/32/19 15/47/15
f 6/62/6 7/5/7 5/61/5
f 6/3/6 12/18/12 7/59/7
f 7/5/7 8/4/8 5/61/5
f 7/59/7 10/49/10 3/64/3
f 7/59/7 18/33/18 10/49/10
f 8/6/8 14/16/14 5/63/5
f 8/6/8 16/17/16 14/16/14
f 9/15/9 12/18/12 2/2/2
f 9/42/9 13/41/13 11/12/11
f 9/42/9 17/26/17 13/41/13
f 10/49/10 11/48/11 3/64/3
f 10/49/10 12/18/12 11/48/11
f 10/42/10 15/7/15 12/8/12
f 10/42/10 18/26/18 14/41/14
f 11/48/11 12/18/12 9/15/9
f 11/48/11 17/31/17 3/64/3
f 11/36/11 26/43/26 17/20/17
f 11/12/11 27/53/27 26/54/26
f 12/18/12 18/33/18 7/59/7
f 12/35/12 23/44/23 18/19/18
f 12/8/12 24/57/24 23/58/23
f 13/50/13 15/47/15 14/16/14
f 13/41/13 16/11/16 11/12/11
f 13/50/13 20/34/20 1/60/1
f 14/41/14 15/7/15 10/42/10
f 14/16/14 16/17/16 13/50/13
f 14/16/14 19/32/19 5/63/5
f 15/7/15 24/57/24 12/8/12
f 16/11/16 27/53/27 11/12/11
f 16/30/16 28/37/28 27/21/27
f 17/26/17 20/25/20 13/41/13
f 17/20/17 26/43/26 25/27/25
f 17/52/17 28/13/28 20/51/20
f 18/26/18 19/25/19 14/41/14
f 18/56/18 21/9/21 19/55/19
f 18/56/18 22/10/22 21/9/21
f 18/19/18 23/44/23 22/28/22
f 19/45/19 21/38/21 15/29/15
f 20/46/20 28/37/28 16/30/16
f 21/38/21 24/22/24 15/29/15
f 22/40/22 23/24/23 21/38/21
f 23/24/23 24/22/24 21/38/21
f 25/14/25 28/13/28 17/52/17
f 26/23/26 28/37/28 25/39/25
f 27/21/27 28/37/28 26/23/26
