# Exported from Wings 3D 0.99.03
mtllib 1S_1DR4.mtl
o cube1
#9 vertices, 14 faces
v 0.50000000 -0.50000000 0.50000000
v 0.50000000 0.60000000 0.50000000
v -0.50000000 -0.40000000 0.50000000
v -0.50000000 -0.50000000 0.50000000
v 0.50000000 -0.50000000 -0.50000000
v 0.50000000 0.60000000 -0.50000000
v -0.50000000 0.60000000 -0.50000000
v -0.50000000 -0.50000000 -0.50000000
v 0.50000000 0.10000000 0.0000000e+0
vt 0.0000000e+0 0.0000000e+0
vt 0.0000000e+0 0.10000000
vt 0.0000000e+0 0.55002111
vt 0.0000000e+0 1.00000000
vt 0.0000000e+0 1.10000000
vt 0.0000000e+0 1.41757752
vt 0.31755483 1.10315914
vt 0.50000000 0.59787551
vt 0.95806318 0.0000000e+0
vt 1.00000000 0.0000000e+0
vt 1.00000000 0.10000000
vt 1.00000000 1.00000000
vt 1.00000000 1.10000000
vt 1.00237868 0.70878876
vt 1.00237868 1.41757752
vn 0.66666667 -0.33333333 0.66666667
vn 0.50858980 0.69474659 0.50858980
vn -0.71959268 0.35861866 0.59462512
vn -0.40824829 -0.81649658 0.40824829
vn 0.57735027 -0.57735027 -0.57735027
vn 0.79410449 0.56151667 -0.23258782
vn -0.54691816 0.77345908 -0.32037724
vn -0.81649658 -0.40824829 -0.40824829
vn 0.74637115 0.61356199 0.25782126
g cube1_cube1_auv3
usemtl cube1_auv3
f 1/10/1 3/2/3 4/1/4
f 1/1/1 9/8/9 2/5/2
f 2/13/2 3/2/3 1/10/1
f 3/11/3 8/1/8 4/10/4
f 3/1/3 9/14/9 7/6/7
f 4/10/4 5/4/5 1/1/1
f 5/1/5 7/13/7 6/5/6
f 5/10/5 9/8/9 1/1/1
f 6/13/6 9/8/9 5/10/5
f 7/5/7 8/1/8 3/11/3
f 7/6/7 9/14/9 6/15/6
f 8/12/8 5/4/5 4/10/4
f 8/10/8 7/13/7 5/1/5
f 9/3/9 3/9/3 2/7/2
