# Exported from Wings 3D 0.99.03
mtllib 1S_2D4.mtl
o cube2
#11 vertices, 17 faces
v -0.50000000 -0.50000000 0.50000000
v -0.50000000 0.60000000 0.50000000
v 0.50000000 0.60000000 0.50000000
v 0.50000000 -0.50000000 0.50000000
v -0.50000000 -0.50000000 -0.50000000
v -0.50000000 0.60000000 -0.50000000
v 0.50000000 0.60000000 -0.50000000
v 0.50000000 -0.50000000 -0.50000000
v 0.0000000e+0 0.10000000 0.50000000
v 0.50000000 0.10000000 0.0000000e+0
v -0.50000000 0.10000000 0.0000000e+0
vt 0.0000000e+0 0.0000000e+0
vt 0.0000000e+0 0.50000000
vt 0.0000000e+0 0.70710678
vt 0.0000000e+0 1.00000000
vt 0.0000000e+0 1.10000000
vt 0.35355339 0.61237244
vt 0.50000000 0.0000000e+0
vt 0.50000000 0.60000000
vt 0.70710678 0.0000000e+0
vt 1.00000000 0.0000000e+0
vt 1.00000000 0.50000000
vt 1.00000000 0.70710678
vt 1.00000000 1.00000000
vt 1.00000000 1.10000000
vn -0.66666667 -0.33333333 0.66666667
vn -0.50858980 0.69474659 0.50858980
vn 0.50858980 0.69474659 0.50858980
vn 0.57735027 -0.57735027 0.57735027
vn -0.66666667 -0.66666667 -0.33333333
vn -0.56151667 0.79410449 0.23258782
vn 0.79410449 0.56151667 -0.23258782
vn 0.81649658 -0.40824829 -0.40824829
vn 0.0000000e+0 0.75953290 0.65046888
vn 0.61497633 0.75939204 0.21243315
vn -0.72700101 0.68553145 3.8937992e-2
g cube2_cube2_auv4
usemtl cube2_auv4
f 1/10/1 5/13/5 4/1/4
f 1/1/1 9/8/9 2/5/2
f 1/10/1 11/8/11 5/1/5
f 2/14/2 11/8/11 1/10/1
f 3/14/3 9/8/9 4/10/4
f 3/6/3 10/1/10 9/9/9
f 4/1/4 5/13/5 8/4/8
f 4/10/4 9/8/9 1/1/1
f 4/1/4 10/8/10 3/5/3
f 5/1/5 11/8/11 6/5/6
f 6/14/6 7/5/7 8/1/8 5/10/5
f 7/12/7 6/3/6 10/10/10
f 7/14/7 10/8/10 8/10/8
f 8/10/8 10/8/10 4/1/4
f 9/1/9 11/9/11 2/6/2
f 10/11/10 11/2/11 9/7/9
f 11/1/11 10/10/10 6/3/6
