# Exported from Wings 3D 0.99.03
mtllib 2S_1D4.mtl
o cube2
#10 vertices, 16 faces
v -0.50000000 -0.50000000 0.50000000
v -0.50000000 0.60000000 0.50000000
v 0.50000000 0.60000000 0.50000000
v 0.50000000 -0.50000000 0.50000000
v -0.50000000 -0.50000000 -0.50000000
v -0.50000000 0.60000000 -0.50000000
v 0.50000000 0.60000000 -0.50000000
v 0.50000000 -0.50000000 -0.50000000
v 0.0000000e+0 0.10000000 0.50000000
v 0.50000000 0.10000000 0.0000000e+0
vt 0.0000000e+0 0.0000000e+0
vt 0.0000000e+0 0.61000000
vt 0.0000000e+0 1.00000000
vt 0.0000000e+0 1.10000000
vt 0.35000000 0.0000000e+0
vt 0.35000000 0.61000000
vt 0.50000000 0.60000000
vt 0.70479502 0.0000000e+0
vt 1.00000000 0.0000000e+0
vt 1.00000000 1.00000000
vt 1.00000000 1.10000000
vt 1.06000000 0.0000000e+0
vt 1.41000000 0.61000000
vn -0.57735027 -0.57735027 0.57735027
vn -0.18615679 0.69474659 0.69474659
vn 0.50858980 0.69474659 0.50858980
vn 0.66666667 -0.33333333 0.66666667
vn -0.57735027 -0.57735027 -0.57735027
vn -0.66666667 0.33333333 -0.66666667
vn 0.70619729 0.70619729 5.0702685e-2
vn 0.57735027 -0.57735027 -0.57735027
vn 0.14375132 0.43125397 0.89070510
vn 0.93325653 0.35921060 0.0000000e+0
g cube2_cube2_auv2
usemtl cube2_auv2
f 1/9/1 6/4/6 5/1/5
f 1/9/1 8/3/8 4/1/4
f 1/1/1 9/7/9 2/4/2
f 2/11/2 6/4/6 1/9/1
f 2/1/2 7/10/7 6/3/6
f 2/2/2 9/5/9 7/13/7
f 3/11/3 9/7/9 4/9/4
f 3/6/3 10/1/10 9/8/9
f 4/9/4 9/7/9 1/1/1
f 4/1/4 10/7/10 3/4/3
f 5/10/5 8/3/8 1/9/1
f 6/11/6 8/1/8 5/9/5
f 7/4/7 8/1/8 6/11/6
f 7/13/7 9/5/9 10/12/10
f 7/11/7 10/7/10 8/9/8
f 8/9/8 10/7/10 4/1/4
