# Exported from Wings 3D 0.99.03
mtllib 4D.mtl
o cube2
#12 vertices, 20 faces
v -0.50000000 -0.50000000 0.50000000
v -0.50000000 0.60000000 0.50000000
v 0.50000000 0.60000000 0.50000000
v 0.50000000 -0.50000000 0.50000000
v -0.50000000 -0.50000000 -0.50000000
v -0.50000000 0.60000000 -0.50000000
v 0.50000000 0.60000000 -0.50000000
v 0.50000000 -0.50000000 -0.50000000
v 0.0000000e+0 0.10000000 0.50000000
v 0.50000000 0.10000000 0.0000000e+0
v -0.50000000 0.10000000 0.0000000e+0
v 0.0000000e+0 0.10000000 -0.50000000
vt 0.0000000e+0 0.0000000e+0
vt 0.0000000e+0 0.50000000
vt 0.0000000e+0 1.00000000
vt 0.0000000e+0 1.10000000
vt 0.35355339 0.61237244
vt 0.50000000 0.0000000e+0
vt 0.50000000 0.60000000
vt 0.50000000 1.00000000
vt 0.70710678 0.0000000e+0
vt 1.00000000 0.0000000e+0
vt 1.00000000 0.50000000
vt 1.00000000 1.00000000
vt 1.00000000 1.10000000
vn -0.66666667 -0.33333333 0.66666667
vn -0.50858980 0.69474659 0.50858980
vn 0.50858980 0.69474659 0.50858980
vn 0.57735027 -0.57735027 0.57735027
vn -0.57735027 -0.57735027 -0.57735027
vn -0.50858980 0.69474659 -0.50858980
vn 0.50858980 0.69474659 -0.50858980
vn 0.66666667 -0.33333333 -0.66666667
vn 0.0000000e+0 0.75953290 0.65046888
vn 0.50490314 0.86317601 0.0000000e+0
vn -0.50490314 0.86317601 0.0000000e+0
vn 0.0000000e+0 0.75953290 -0.65046888
g cube2_cube2_auv4
usemtl cube2_auv4
f 1/10/1 5/12/5 4/1/4
f 1/1/1 9/7/9 2/4/2
f 1/10/1 11/7/11 5/1/5
f 2/13/2 11/7/11 1/10/1
f 3/13/3 9/7/9 4/10/4
f 3/5/3 10/1/10 9/9/9
f 4/1/4 5/12/5 8/3/8
f 4/10/4 9/7/9 1/1/1
f 4/1/4 10/7/10 3/4/3
f 5/1/5 11/7/11 6/4/6
f 5/10/5 12/7/12 8/1/8
f 6/13/6 12/7/12 5/10/5
f 7/13/7 10/7/10 8/10/8
f 7/5/7 12/1/12 10/9/10
f 8/10/8 10/7/10 4/1/4
f 8/1/8 12/7/12 7/4/7
f 9/1/9 11/9/11 2/5/2
f 10/11/10 11/2/11 9/6/9
f 11/1/11 12/9/12 6/5/6
f 12/8/12 11/2/11 10/11/10
