# Exported from Wings 3D 0.99.03
mtllib Fortif.mtl
o cube1
#76 vertices, 148 faces
v -0.50000000 -0.50000000 0.50000000
v -0.50000000 -0.40000000 0.50000000
v 0.50000000 -0.40000000 0.50000000
v 0.50000000 -0.50000000 0.50000000
v -0.50000000 -0.50000000 -0.50000000
v -0.50000000 -0.40000000 -0.50000000
v 0.50000000 -0.40000000 -0.50000000
v 0.50000000 -0.50000000 -0.50000000
v -0.25000000 -0.40000000 0.50000000
v -0.12500000 -0.40000000 0.50000000
v 0.12500000 -0.40000000 0.50000000
v 0.25000000 -0.40000000 0.50000000
v -0.50000000 -0.40000000 0.25000000
v -0.50000000 -0.40000000 0.12500000
v -0.50000000 -0.40000000 -0.12500000
v -0.50000000 -0.40000000 -0.25000000
v 0.50000000 -0.40000000 0.25000000
v 0.50000000 -0.40000000 0.12500000
v 0.50000000 -0.40000000 -0.12500000
v 0.50000000 -0.40000000 -0.25000000
v -0.25000000 -0.40000000 -0.50000000
v -0.12500000 -0.40000000 -0.50000000
v 0.12500000 -0.40000000 -0.50000000
v 0.25000000 -0.40000000 -0.50000000
v -0.25000000 -0.40000000 0.25000000
v -0.12500000 -0.40000000 0.25000000
v 0.12500000 -0.40000000 0.25000000
v 0.25000000 -0.40000000 0.25000000
v -0.25000000 -0.40000000 0.12500000
v -0.12500000 -0.40000000 0.12500000
v 0.12500000 -0.40000000 0.12500000
v 0.25000000 -0.40000000 0.12500000
v -0.25000000 -0.40000000 -0.12500000
v -0.12500000 -0.40000000 -0.12500000
v 0.12500000 -0.40000000 -0.12500000
v 0.25000000 -0.40000000 -0.12500000
v -0.25000000 -0.40000000 -0.25000000
v -0.12500000 -0.40000000 -0.25000000
v 0.12500000 -0.40000000 -0.25000000
v 0.25000000 -0.40000000 -0.25000000
v -0.25125000 0.50000000 0.49875000
v -0.25125000 0.50000000 0.25125000
v -0.49875000 0.50000000 0.25125000
v -0.49875000 0.50000000 0.49875000
v -0.25125000 0.50000000 0.12375000
v -0.25125000 0.50000000 -0.12375000
v -0.49875000 0.50000000 -0.12375000
v -0.49875000 0.50000000 0.12375000
v -0.25125000 0.50000000 -0.25125000
v -0.25125000 0.50000000 -0.49875000
v -0.49875000 0.50000000 -0.49875000
v -0.49875000 0.50000000 -0.25125000
v 0.12375000 0.50000000 0.49875000
v 0.12375000 0.50000000 0.25125000
v -0.12375000 0.50000000 0.25125000
v -0.12375000 0.50000000 0.49875000
v 0.49875000 0.50000000 0.49875000
v 0.49875000 0.50000000 0.25125000
v 0.25125000 0.50000000 0.25125000
v 0.25125000 0.50000000 0.49875000
v 0.12375000 0.50000000 0.12375000
v 0.12375000 0.50000000 -0.12375000
v -0.12375000 0.50000000 -0.12375000
v -0.12375000 0.50000000 0.12375000
v 0.49875000 0.50000000 0.12375000
v 0.49875000 0.50000000 -0.12375000
v 0.25125000 0.50000000 -0.12375000
v 0.25125000 0.50000000 0.12375000
v 0.12375000 0.50000000 -0.25125000
v 0.12375000 0.50000000 -0.49875000
v -0.12375000 0.50000000 -0.49875000
v -0.12375000 0.50000000 -0.25125000
v 0.49875000 0.50000000 -0.25125000
v 0.49875000 0.50000000 -0.49875000
v 0.25125000 0.50000000 -0.49875000
v 0.25125000 0.50000000 -0.25125000
vt 0.0000000e+0 0.0000000e+0
vt 0.0000000e+0 0.10000000
vt 0.0000000e+0 0.25000000
vt 0.0000000e+0 0.37500000
vt 0.0000000e+0 0.62500000
vt 0.0000000e+0 0.75000000
vt 0.0000000e+0 0.90000000
vt 0.0000000e+0 1.00000000
vt 0.25000000 0.0000000e+0
vt 0.25000000 0.10000000
vt 0.25000000 0.25000000
vt 0.25000000 0.37500000
vt 0.25000000 0.62500000
vt 0.25000000 0.75000000
vt 0.25000000 0.90000000
vt 0.25000000 1.00000000
vt 0.37500000 0.0000000e+0
vt 0.37500000 0.10000000
vt 0.37500000 0.25000000
vt 0.37500000 0.37500000
vt 0.37500000 0.62500000
vt 0.37500000 0.75000000
vt 0.37500000 1.00000000
vt 0.62500000 0.0000000e+0
vt 0.62500000 0.10000000
vt 0.62500000 0.25000000
vt 0.62500000 0.37500000
vt 0.62500000 0.62500000
vt 0.62500000 0.75000000
vt 0.62500000 1.00000000
vt 0.75000000 0.0000000e+0
vt 0.75000000 0.10000000
vt 0.75000000 0.25000000
vt 0.75000000 0.37500000
vt 0.75000000 0.62500000
vt 0.75000000 0.75000000
vt 0.75000000 1.00000000
vt 1.00000000 0.0000000e+0
vt 1.00000000 0.10000000
vt 1.00000000 0.25000000
vt 1.00000000 0.37500000
vt 1.00000000 0.62500000
vt 1.00000000 0.75000000
vt 1.00000000 1.00000000
vn -0.78446454 -0.19611614 0.58834841
vn -0.70710617 1.3094555e-3 0.70710617
vn 0.70710644 9.8209180e-4 0.70710644
vn 0.66666667 -0.33333333 0.66666667
vn -0.55708601 -0.37139068 -0.74278135
vn -0.70710644 9.8209180e-4 -0.70710644
vn 0.70710617 1.3094555e-3 -0.70710617
vn 0.68824720 -0.22941573 -0.68824720
vn 0.30143494 0.30227255 0.90430541
vn -0.34803779 0.34900490 0.87009498
vn 0.30143494 0.30227255 0.90430541
vn -0.40805896 0.40919285 0.81611831
vn -0.90430541 0.30227255 -0.30143494
vn -0.81611831 0.40919285 0.40805896
vn -0.94266340 0.23632053 -0.23566568
vn -0.81611831 0.40919285 0.40805896
vn 0.81611831 0.40919285 -0.40805896
vn 0.90430541 0.30227255 0.30143494
vn 0.87009498 0.34900490 -0.34803779
vn 0.90430541 0.30227255 0.30143494
vn 0.40805896 0.40919285 -0.81611831
vn -0.30143494 0.30227255 -0.90430541
vn 0.34803779 0.34900490 -0.87009498
vn -0.30143494 0.30227255 -0.90430541
vn 0.30128284 0.90468630 -0.30128284
vn -0.30128284 0.90468630 -0.30128284
vn 0.30128284 0.90468630 -0.30128284
vn -0.30128284 0.90468630 -0.30128284
vn 0.30128284 0.90468630 0.30128284
vn -0.30128284 0.90468630 0.30128284
vn 0.30128284 0.90468630 0.30128284
vn -0.30128284 0.90468630 0.30128284
vn 0.30128284 0.90468630 -0.30128284
vn -0.30128284 0.90468630 -0.30128284
vn 0.30128284 0.90468630 -0.30128284
vn -0.30128284 0.90468630 -0.30128284
vn 0.30128284 0.90468630 0.30128284
vn -0.30128284 0.90468630 0.30128284
vn 0.30128284 0.90468630 0.30128284
vn -0.30128284 0.90468630 0.30128284
vn 0.57681550 0.57841832 0.57681550
vn 0.57681550 0.57841832 -0.57681550
vn -0.57681550 0.57841832 -0.57681550
vn -0.57681550 0.57841832 0.57681550
vn 0.57681550 0.57841832 0.57681550
vn 0.57681550 0.57841832 -0.57681550
vn -0.57681550 0.57841832 -0.57681550
vn -0.57681550 0.57841832 0.57681550
vn 0.57681550 0.57841832 0.57681550
vn 0.57681550 0.57841832 -0.57681550
vn -0.57681550 0.57841832 -0.57681550
vn -0.57681550 0.57841832 0.57681550
vn 0.57681550 0.57841832 0.57681550
vn 0.57681550 0.57841832 -0.57681550
vn -0.57681550 0.57841832 -0.57681550
vn -0.57681550 0.57841832 0.57681550
vn 0.57681550 0.57841832 0.57681550
vn 0.57681550 0.57841832 -0.57681550
vn -0.57681550 0.57841832 -0.57681550
vn -0.57681550 0.57841832 0.57681550
vn 0.57681550 0.57841832 0.57681550
vn 0.57681550 0.57841832 -0.57681550
vn -0.57681550 0.57841832 -0.57681550
vn -0.57681550 0.57841832 0.57681550
vn 0.57681550 0.57841832 0.57681550
vn 0.57681550 0.57841832 -0.57681550
vn -0.57681550 0.57841832 -0.57681550
vn -0.57681550 0.57841832 0.57681550
vn 0.57681550 0.57841832 0.57681550
vn 0.57681550 0.57841832 -0.57681550
vn -0.57681550 0.57841832 -0.57681550
vn -0.57681550 0.57841832 0.57681550
vn 0.57681550 0.57841832 0.57681550
vn 0.57681550 0.57841832 -0.57681550
vn -0.57681550 0.57841832 -0.57681550
vn -0.57681550 0.57841832 0.57681550
g cube1_cube1_auv2
usemtl cube1_auv2
f 1/38/1 5/44/5 4/1/4
f 1/1/1 9/10/9 2/2/2
f 1/1/1 10/18/10 9/10/9
f 1/38/1 15/18/15 5/1/5
f 2/39/2 13/32/13 1/38/1
f 2/39/2 43/37/43 13/32/13
f 2/39/2 44/44/44 43/37/43
f 3/39/3 12/32/12 4/38/4
f 3/39/3 57/44/57 12/32/12
f 4/38/4 10/18/10 1/1/1
f 4/38/4 11/25/11 10/18/10
f 4/38/4 12/32/12 11/25/11
f 4/1/4 17/10/17 3/2/3
f 4/1/4 18/18/18 17/10/17
f 4/1/4 19/25/19 18/18/18
f 5/44/5 8/8/8 4/1/4
f 5/1/5 16/10/16 6/2/6
f 5/38/5 23/18/23 8/1/8
f 6/39/6 21/32/21 5/38/5
f 6/39/6 51/44/51 21/32/21
f 7/39/7 20/32/20 8/38/8
f 7/39/7 73/37/73 20/32/20
f 7/39/7 74/44/74 73/37/73
f 7/2/7 75/16/75 74/8/74
f 8/38/8 19/25/19 4/1/4
f 8/38/8 20/32/20 19/25/19
f 8/1/8 24/10/24 7/2/7
f 9/10/9 41/16/41 2/2/2
f 10/17/10 25/11/25 9/9/9
f 10/17/10 26/19/26 25/11/25
f 10/9/10 55/7/55 26/1/26
f 10/9/10 56/15/56 55/7/55
f 11/25/11 53/30/53 10/18/10
f 12/31/12 27/26/27 11/24/11
f 12/31/12 28/33/28 27/26/27
f 12/9/12 59/7/59 28/1/28
f 12/9/12 60/15/60 59/7/59
f 13/32/13 14/25/14 1/38/1
f 13/3/13 25/11/25 14/4/14
f 13/9/13 43/15/43 25/1/25
f 14/25/14 15/18/15 1/38/1
f 14/25/14 47/23/47 15/18/15
f 14/25/14 48/30/48 47/23/47
f 15/18/15 16/10/16 5/1/5
f 15/5/15 33/13/33 16/6/16
f 15/9/15 47/15/47 33/1/33
f 16/10/16 51/8/51 6/2/6
f 16/10/16 52/16/52 51/8/51
f 17/40/17 32/34/32 28/33/28
f 17/10/17 57/8/57 3/2/3
f 17/10/17 58/16/58 57/8/57
f 17/1/17 59/15/59 58/7/58
f 18/41/18 32/34/32 17/40/17
f 18/9/18 65/15/65 32/1/32
f 19/42/19 40/36/40 36/35/36
f 19/25/19 65/23/65 18/18/18
f 19/25/19 66/30/66 65/23/65
f 19/1/19 67/15/67 66/7/66
f 20/43/20 40/36/40 19/42/19
f 20/9/20 73/15/73 40/1/40
f 21/32/21 22/25/22 5/38/5
f 21/16/21 38/22/38 22/23/22
f 21/9/21 49/7/49 37/1/37
f 21/9/21 50/15/50 49/7/49
f 21/32/21 51/44/51 50/37/50
f 22/25/22 23/18/23 5/38/5
f 22/25/22 71/30/71 23/18/23
f 23/18/23 24/10/24 8/1/8
f 23/30/23 40/36/40 24/37/24
f 23/9/23 69/7/69 39/1/39
f 23/9/23 70/15/70 69/7/69
f 23/18/23 71/30/71 70/23/70
f 24/10/24 75/16/75 7/2/7
f 25/11/25 29/12/29 14/4/14
f 25/11/25 30/20/30 29/12/29
f 25/9/25 41/7/41 9/1/9
f 25/9/25 42/15/42 41/7/41
f 25/1/25 43/15/43 42/7/42
f 26/19/26 30/20/30 25/11/25
f 26/9/26 55/15/55 27/1/27
f 27/26/27 30/20/30 26/19/26
f 27/26/27 31/27/31 30/20/30
f 27/26/27 32/34/32 31/27/31
f 27/9/27 53/7/53 11/1/11
f 27/9/27 54/15/54 53/7/53
f 27/1/27 55/15/55 54/7/54
f 28/33/28 32/34/32 27/26/27
f 28/9/28 59/15/59 17/1/17
f 29/9/29 45/15/45 14/1/14
f 30/20/30 33/13/33 29/12/29
f 30/20/30 34/21/34 33/13/33
f 30/9/30 63/7/63 34/1/34
f 30/9/30 64/15/64 63/7/63
f 31/9/31 61/15/61 30/1/30
f 32/34/32 35/28/35 31/27/31
f 32/34/32 36/35/36 35/28/35
f 32/9/32 67/7/67 36/1/36
f 32/9/32 68/15/68 67/7/67
f 33/13/33 37/14/37 16/6/16
f 33/13/33 38/22/38 37/14/37
f 33/9/33 45/7/45 29/1/29
f 33/9/33 46/15/46 45/7/45
f 33/1/33 47/15/47 46/7/46
f 34/21/34 38/22/38 33/13/33
f 34/9/34 63/15/63 35/1/35
f 35/28/35 38/22/38 34/21/34
f 35/28/35 39/29/39 38/22/38
f 35/28/35 40/36/40 39/29/39
f 35/9/35 61/7/61 31/1/31
f 35/9/35 62/15/62 61/7/61
f 35/1/35 63/15/63 62/7/62
f 36/35/36 40/36/40 35/28/35
f 36/9/36 67/15/67 19/1/19
f 37/14/37 38/22/38 21/16/21
f 37/9/37 49/15/49 16/1/16
f 38/9/38 71/7/71 22/1/22
f 38/9/38 72/15/72 71/7/71
f 39/29/39 40/36/40 23/30/23
f 39/9/39 69/15/69 38/1/38
f 40/9/40 75/7/75 24/1/24
f 40/9/40 76/15/76 75/7/75
f 41/16/41 44/8/44 2/2/2
f 42/11/42 43/3/43 41/9/41
f 43/3/43 44/1/44 41/9/41
f 45/15/45 48/7/48 14/1/14
f 46/11/46 47/3/47 45/9/45
f 47/3/47 48/1/48 45/9/45
f 49/15/49 52/7/52 16/1/16
f 50/11/50 51/3/51 49/9/49
f 51/3/51 52/1/52 49/9/49
f 53/30/53 56/23/56 10/18/10
f 54/11/54 55/3/55 53/9/53
f 55/3/55 56/1/56 53/9/53
f 57/44/57 60/37/60 12/32/12
f 58/11/58 59/3/59 57/9/57
f 59/3/59 60/1/60 57/9/57
f 61/15/61 64/7/64 30/1/30
f 62/11/62 63/3/63 61/9/61
f 63/3/63 64/1/64 61/9/61
f 65/15/65 68/7/68 32/1/32
f 66/11/66 67/3/67 65/9/65
f 67/3/67 68/1/68 65/9/65
f 69/15/69 72/7/72 38/1/38
f 70/11/70 71/3/71 69/9/69
f 71/3/71 72/1/72 69/9/69
f 73/15/73 76/7/76 40/1/40
f 74/11/74 75/3/75 73/9/73
f 75/3/75 76/1/76 73/9/73
