# Exported from Wings 3D 0.99.03
mtllib Items.mtl
o icosahedron1
#12 vertices, 20 faces
v 1.6314470e-2 0.34131475 3.5324875e-2
v 0.13222484 8.1925453e-2 7.5369442e-3
v 7.0919645e-2 0.14002892 0.19366549
v -0.18854815 6.7496599e-2 7.9063265e-2
v -0.15086606 0.16355807 -0.13312280
v 0.10192514 3.8697811e-2 -0.12690478
v -0.22166863 -9.7485398e-2 2.0218387e-2
v -8.2510422e-2 -0.15363812 -0.18662921
v 0.22675036 -0.15493875 -0.16556555
v 0.20638454 -5.9206384e-2 0.16405224
v -9.2831981e-2 -0.10022816 0.24690623
v -1.8093735e-2 -0.26752478 -0.13454509
vt 0.0000000e+0 0.10647994
vt 0.0000000e+0 0.77566159
vt 6.6766012e-3 0.0000000e+0
vt 2.9851506e-2 0.59529693
vt 6.9816698e-2 0.34563715
vt 0.11718676 0.93469476
vt 0.14467891 0.71991932
vt 0.19010022 0.14311700
vt 0.19779693 0.53025116
vt 0.23240796 0.27137077
vt 0.25312282 0.70434449
vt 0.28135925 0.83684982
vt 0.28135925 0.53025116
vt 0.30608172 0.57753582
vt 0.38729779 9.8814864e-2
vt 0.38729779 0.15483083
vt 0.48479068 0.24651548
vt 0.48663647 0.84660855
vt 0.53857846 0.53025116
vt 0.53885615 0.50909479
vt 0.56749099 0.0000000e+0
vt 0.62202636 9.1697592e-2
vt 0.65710793 0.68828553
vt 0.67967407 0.17467770
vt 0.67967407 0.33407599
vt 0.76369857 0.0000000e+0
vt 0.85401452 0.36915748
vt 0.90146967 0.17653737
vt 1.00000000 2.1265133e-2
vn 0.31148115 0.94983072 -2.8303514e-2
vn 0.87436084 0.47610158 -9.3916987e-2
vn 0.30482857 0.54572773 0.78055159
vn -0.79439349 0.39693092 0.45976605
vn -0.63414617 0.41543154 -0.65213133
vn 0.46502070 0.43070316 -0.77346657
vn -0.94961618 -0.30992131 -4.6667861e-2
vn -0.33129676 -0.15544728 -0.93063344
vn 0.73924059 -1.4659227e-2 -0.67328186
vn 0.82040907 -0.22668704 0.52492089
vn -0.38858779 -0.34911417 0.85271263
vn -0.14052677 -0.98674349 -8.1175813e-2
g icosahedron1_icosahedron1_auv
usemtl icosahedron1_auv
f 1/6/1 3/2/3 2/7/2
f 1/27/1 4/24/4 3/28/3
f 1/9/1 5/5/5 4/10/4
f 1/20/1 6/17/6 5/25/5
f 2/7/2 6/11/6 1/6/1
f 2/7/2 9/13/9 6/11/6
f 2/7/2 10/4/10 9/13/9
f 3/2/3 10/4/10 2/7/2
f 3/28/3 11/26/11 10/29/10
f 4/24/4 11/26/11 3/28/3
f 5/5/5 7/8/7 4/10/4
f 5/5/5 8/1/8 7/8/7
f 6/17/6 8/22/8 5/25/5
f 6/17/6 9/15/9 8/22/8
f 7/8/7 11/16/11 4/10/4
f 7/23/7 12/18/12 11/19/11
f 8/1/8 12/3/12 7/8/7
f 9/15/9 12/21/12 8/22/8
f 10/14/10 12/18/12 9/12/9
f 11/19/11 12/18/12 10/14/10
