# Exported from Wings 3D 0.99.03
mtllib N.mtl
o cube2
#9 vertices, 9 faces
v -0.50000000 -0.50000000 0.50000000
v -0.50000000 -0.40000000 0.50000000
v 0.50000000 -0.40000000 0.50000000
v 0.50000000 -0.50000000 0.50000000
v -0.50000000 -0.50000000 -0.50000000
v -0.50000000 -0.40000000 -0.50000000
v 0.50000000 -0.40000000 -0.50000000
v 0.50000000 -0.50000000 -0.50000000
v 0.0000000e+0 0.10000000 0.0000000e+0
vt 0.0000000e+0 0.0000000e+0
vt 0.0000000e+0 0.10000000
vt 0.0000000e+0 1.00000000
vt 0.50000000 0.70710678
vt 1.00000000 0.0000000e+0
vt 1.00000000 0.10000000
vt 1.00000000 1.00000000
vn -0.57735027 -0.57735027 0.57735027
vn -0.61013148 0.50544947 0.61013148
vn 0.61013148 0.50544947 0.61013148
vn 0.57735027 -0.57735027 0.57735027
vn -0.57735027 -0.57735027 -0.57735027
vn -0.61013148 0.50544947 -0.61013148
vn 0.61013148 0.50544947 -0.61013148
vn 0.57735027 -0.57735027 -0.57735027
vn 0.0000000e+0 1.00000000 0.0000000e+0
g cube2_cube2_auv4
usemtl cube2_auv4
f 1/1/1 4/5/4 3/6/3 2/2/2
f 1/5/1 5/7/5 8/3/8 4/1/4
f 2/6/2 6/2/6 5/1/5 1/5/1
f 2/5/2 9/4/9 6/1/6
f 3/5/3 9/4/9 2/1/2
f 4/1/4 8/5/8 7/6/7 3/2/3
f 6/6/6 7/2/7 8/1/8 5/5/5
f 6/5/6 9/4/9 7/1/7
f 7/5/7 9/4/9 3/1/3
