# Exported from Wings 3D 0.99.03
mtllib Stair_Down.mtl
o cube1
#16 vertices, 32 faces
v -0.50000000 -0.50000000 0.50000000
v -0.50000000 -0.40000000 0.50000000
v 0.50000000 -0.40000000 0.50000000
v 0.50000000 -0.50000000 0.50000000
v -0.50000000 -0.50000000 -0.50000000
v -0.50000000 -0.40000000 -0.50000000
v 0.50000000 -0.40000000 -0.50000000
v 0.50000000 -0.50000000 -0.50000000
v -0.33333353 -0.40000000 0.40000001
v 0.33333353 -0.40000000 -0.40000013
v 0.33333313 -0.40000000 0.40000001
v -0.33333313 -0.40000000 -0.40000013
v -0.33333353 -0.50000000 0.40000001
v 0.33333353 -0.50000000 -0.40000013
v -0.33333313 -0.50000000 -0.40000013
v 0.33333313 -0.50000000 0.40000001
vt 6.0868111e-3 6.0869244e-3
vt 6.0869711e-3 6.0870017e-3
vt 6.0869711e-3 0.99391284
vt 6.0869754e-3 0.54939130
vt 6.0869754e-3 0.45060870
vt 6.0869754e-3 0.45060870
vt 6.0869754e-3 0.45060870
vt 6.0869754e-3 0.54939130
vt 6.0869754e-3 0.45060870
vt 6.0869754e-3 0.54939130
vt 6.0871581e-3 0.99391319
vt 0.10486951 0.45060870
vt 0.10486951 0.45060870
vt 0.10486951 0.54939130
vt 0.10486951 0.54939130
vt 0.10486952 5.5478278e-2
vt 0.10486967 5.5478278e-2
vt 0.17072438 0.10486955
vt 0.17072464 0.89513063
vt 0.17072470 0.10486951
vt 0.17072490 0.89513044
vt 0.33536278 -0.32423669
vt 0.33536278 -0.32423681
vt 0.66463767 0.54939130
vt 0.66463767 0.45060870
vt 0.66463767 0.54939130
vt 0.82927518 0.89513034
vt 0.82927527 0.10486951
vt 0.82927541 0.89513059
vt 0.82927556 0.10486950
vt 0.89513049 0.45060870
vt 0.89513049 0.45060870
vt 0.89513049 0.54939130
vt 0.89513049 0.54939130
vt 0.99391294 0.99391313
vt 0.99391299 6.0869244e-3
vt 0.99391302 0.45060870
vt 0.99391302 0.45060870
vt 0.99391302 0.54939130
vt 0.99391302 0.54939130
vt 0.99391302 0.45060870
vt 0.99391302 0.54939130
vt 0.99391302 0.45060870
vt 0.99391302 0.54939130
vt 0.99391308 0.99391275
vt 0.99391310 6.0868782e-3
vn -0.40824829 -0.81649658 0.40824829
vn -0.23570226 0.94280904 0.23570226
vn 0.48507125 0.72760688 0.48507125
vn 0.40824829 -0.81649658 0.40824829
vn -0.30151134 -0.90453403 -0.30151134
vn -0.48507125 0.72760688 -0.48507125
vn 0.40824829 0.81649658 -0.40824829
vn 0.48507125 -0.72760688 -0.48507125
vn 0.57735037 0.57735037 -0.57735008
vn -0.40824832 0.81649665 0.40824812
vn -0.30151133 0.90453399 -0.30151148
vn 0.30151133 0.90453399 0.30151148
vn 0.40824832 -0.81649665 -0.40824812
vn -0.30151136 -0.90453407 0.30151121
vn 0.48507119 -0.72760679 0.48507144
vn -0.40824826 -0.81649651 -0.40824846
g cube1_cube1_auv
usemtl cube1_auv
f 1/9/1 3/44/3 2/4/2
f 1/37/1 6/8/6 5/6/5
f 1/36/1 15/27/15 13/30/13
f 1/36/1 16/20/16 4/1/4
f 2/39/2 6/8/6 1/37/1
f 2/2/2 12/21/12 6/3/6
f 3/8/3 8/41/8 7/42/7
f 3/46/3 11/28/11 2/2/2
f 4/43/4 3/44/3 1/9/1
f 4/7/4 8/41/8 3/8/3
f 4/1/4 16/20/16 8/11/8
f 5/45/5 14/19/14 15/27/15
f 5/45/5 15/27/15 1/36/1
f 6/40/6 8/5/8 5/38/5
f 6/3/6 10/29/10 7/35/7
f 7/10/7 8/5/8 6/40/6
f 7/35/7 10/29/10 3/46/3
f 8/11/8 14/19/14 5/45/5
f 9/18/9 2/2/2 11/28/11
f 9/14/9 15/32/15 12/34/12
f 9/26/9 16/22/16 13/25/13
f 10/24/10 15/23/15 14/25/14
f 10/15/10 16/31/16 11/33/11
f 11/28/11 3/46/3 10/29/10
f 12/21/12 2/2/2 9/18/9
f 12/21/12 10/29/10 6/3/6
f 13/30/13 16/20/16 1/36/1
f 14/19/14 8/11/8 16/20/16
f 15/32/15 9/14/9 13/12/13
f 15/23/15 10/24/10 12/16/12
f 16/22/16 9/26/9 11/17/11
f 16/31/16 10/15/10 14/13/14
