# Exported from Wings 3D 0.99.03
mtllib Stairs.mtl
o cube1
#28 vertices, 56 faces
v -0.50000000 -0.50000000 0.50000000
v -0.50000000 -0.40000000 0.50000000
v 0.50000000 -0.40000000 0.50000000
v 0.50000000 -0.50000000 0.50000000
v -0.50000000 -0.50000000 -0.50000000
v -0.50000000 -0.40000000 -0.50000000
v 0.50000000 -0.40000000 -0.50000000
v 0.50000000 -0.50000000 -0.50000000
v -0.33333353 -0.40000000 0.40000001
v 0.33333353 -0.40000000 -0.40000013
v 0.33333313 -0.40000000 0.40000001
v -0.33333313 -0.40000000 -0.40000013
v -0.33333353 -0.50000000 0.40000001
v 0.33333353 -0.50000000 -0.40000013
v -0.33333313 -0.50000000 -0.40000013
v 0.33333313 -0.50000000 0.40000001
v -2.0000000e-7 -0.40000000 0.40000001
v 2.0000000e-7 -0.40000000 -0.40000013
v 2.0000000e-7 -0.50000000 -0.40000013
v -2.0000000e-7 -0.50000000 0.40000001
v -5.3333333e-7 0.50000000 0.39999998
v -5.3333333e-7 0.60000000 0.39999998
v -0.33333387 0.60000000 0.39999998
v -0.33333387 0.50000000 0.39999998
v 5.3333333e-7 0.60000000 -0.39999980
v 0.33333387 0.60000000 -0.39999980
v 0.33333387 0.50000000 -0.39999980
v 5.3333333e-7 0.50000000 -0.39999980
vt 6.0868111e-3 6.0869244e-3
vt 6.0869711e-3 6.0870017e-3
vt 6.0869711e-3 0.99391284
vt 6.0869754e-3 0.45060870
vt 6.0869754e-3 0.54939130
vt 6.0871581e-3 0.99391319
vt 0.10486951 0.45060870
vt 0.10486951 0.54939130
vt 0.10486952 -4.3304327e-2
vt 0.10486952 5.5478278e-2
vt 0.10486952 0.94452172
vt 0.10486952 1.04330433
vt 0.10486967 -4.3304327e-2
vt 0.10486967 5.5478278e-2
vt 0.10486967 0.94452172
vt 0.10486967 1.04330433
vt 0.17072438 0.10486955
vt 0.17072464 0.89513063
vt 0.17072470 0.10486951
vt 0.17072490 0.89513044
vt 0.33536196 -0.13251733
vt 0.33536196 -0.13251723
vt 0.33536205 0.94079778
vt 0.33536205 0.94079785
vt 0.33536205 1.03958038
vt 0.33536205 1.03958045
vt 0.33536233 0.45060870
vt 0.33536233 0.54939130
vt 0.33536269 1.13251723
vt 0.33536269 1.13251733
vt 0.33536278 -0.32423681
vt 0.33536278 -0.32423669
vt 0.49999979 0.10486952
vt 0.49999993 0.89513049
vt 0.50000012 0.89513051
vt 0.50000015 0.10486951
vt 0.66463731 -0.13251733
vt 0.66463731 -0.13251723
vt 0.66463740 0.94079778
vt 0.66463740 0.94079785
vt 0.66463740 1.03958038
vt 0.66463740 1.03958045
vt 0.66463767 0.45060870
vt 0.66463767 0.54939130
vt 0.66463804 1.13251723
vt 0.66463804 1.13251733
vt 0.66463813 -0.32423680
vt 0.66463813 -0.32423669
vt 0.82927518 0.89513034
vt 0.82927527 0.10486951
vt 0.82927541 0.89513059
vt 0.82927556 0.10486950
vt 0.89513033 -4.3304327e-2
vt 0.89513033 5.5478278e-2
vt 0.89513033 0.94452172
vt 0.89513033 1.04330433
vt 0.89513048 -4.3304327e-2
vt 0.89513048 5.5478278e-2
vt 0.89513048 0.94452172
vt 0.89513048 1.04330433
vt 0.89513049 0.45060870
vt 0.89513049 0.54939130
vt 0.99391294 0.99391313
vt 0.99391299 6.0869244e-3
vt 0.99391302 0.45060870
vt 0.99391302 0.54939130
vt 0.99391308 0.99391275
vt 0.99391310 6.0868782e-3
vn -0.30151134 -0.90453403 0.30151134
vn -0.40824829 0.81649658 0.40824829
vn 0.23570226 0.94280904 0.23570226
vn 0.48507125 -0.72760688 0.48507125
vn -0.40824829 -0.81649658 -0.40824829
vn -0.30151134 0.90453403 -0.30151134
vn 0.48507125 0.72760688 -0.48507125
vn 0.23570226 -0.94280904 -0.23570226
vn 0.40824832 0.81649665 -0.40824812
vn -0.48507131 0.72760696 0.48507106
vn -1.1051997e-13 0.95848102 0.28515634
vn 1.3372344e-13 0.93861699 -0.34496107
vn 0.48507131 -0.72760696 -0.48507106
vn -0.40824832 -0.81649665 0.40824812
vn 1.1051998e-13 -0.95848112 0.28515600
vn -1.3372346e-13 -0.93861709 -0.34496080
vn -0.42400496 0.90088121 -9.2913071e-2
vn 0.26549930 0.96235403 5.8179433e-2
vn 0.33930826 -0.72092660 0.60426380
vn -0.24035468 -0.87121240 -0.42804039
vn 0.46820354 -0.29248446 0.83380950
vn 0.83383643 0.52089353 0.18272037
vn -0.83383667 0.52089368 0.18271888
vn -0.46820388 -0.29248467 0.83380924
vn -0.83383650 0.52089346 -0.18272029
vn 0.83383673 0.52089360 -0.18271880
vn 0.46820387 -0.29248460 -0.83380927
vn -0.46820353 -0.29248439 -0.83380953
g cube1_cube1_auv2
usemtl cube1_auv2
f 1/4/1 4/65/4 2/5/2
f 1/64/1 20/36/20 4/1/4
f 2/5/2 4/65/4 3/66/3
f 2/66/2 5/4/5 1/65/1
f 2/66/2 6/5/6 5/4/5
f 2/2/2 12/20/12 6/3/6
f 2/2/2 17/33/17 9/17/9
f 3/68/3 17/33/17 2/2/2
f 4/4/4 7/66/7 3/5/3
f 4/4/4 8/65/8 7/66/7
f 4/1/4 16/19/16 8/6/8
f 4/1/4 20/36/20 16/19/16
f 5/67/5 13/52/13 1/64/1
f 5/67/5 15/49/15 13/52/13
f 5/67/5 19/34/19 15/49/15
f 6/66/6 7/5/7 5/65/5
f 6/3/6 18/35/18 7/63/7
f 7/5/7 8/4/8 5/65/5
f 7/63/7 10/51/10 3/68/3
f 7/63/7 18/35/18 10/51/10
f 8/6/8 16/19/16 14/18/14
f 8/6/8 19/34/19 5/67/5
f 9/17/9 12/20/12 2/2/2
f 9/8/9 13/7/13 12/62/12
f 9/44/9 17/28/17 13/43/13
f 10/51/10 11/50/11 3/68/3
f 10/8/10 16/61/16 11/62/11
f 10/44/10 19/27/19 14/43/14
f 11/50/11 17/33/17 3/68/3
f 11/38/11 26/45/26 17/22/17
f 12/20/12 18/35/18 6/3/6
f 12/37/12 22/30/22 18/21/18
f 12/37/12 23/46/23 22/30/22
f 12/10/12 24/59/24 23/60/23
f 13/7/13 15/61/15 12/62/12
f 13/52/13 20/36/20 1/64/1
f 14/7/14 16/61/16 10/8/10
f 14/18/14 19/34/19 8/6/8
f 15/9/15 24/59/24 12/10/12
f 16/13/16 26/56/26 11/14/11
f 16/13/16 27/55/27 26/56/26
f 16/32/16 28/39/28 27/23/27
f 17/28/17 20/27/20 13/43/13
f 17/22/17 26/45/26 25/29/25
f 17/54/17 28/15/28 20/53/20
f 18/28/18 19/27/19 10/44/10
f 18/58/18 22/12/22 19/57/19
f 19/57/19 22/12/22 21/11/21
f 19/47/19 24/24/24 15/31/15
f 20/48/20 28/39/28 16/32/16
f 21/40/21 24/24/24 19/47/19
f 22/42/22 24/24/24 21/40/21
f 23/26/23 24/24/24 22/42/22
f 25/16/25 28/15/28 17/54/17
f 26/25/26 28/39/28 25/41/25
f 27/23/27 28/39/28 26/25/26
